<svg width="24" height="24" viewBox="0 0 24 24" fill="none" xmlns="http://www.w3.org/2000/svg">
<path fill-rule="evenodd" clip-rule="evenodd" d="M8.31615 0H15.6839C22.4079 0 24 1.59209 24 8.31615V15.6839C24 22.4079 22.4079 24 15.6839 24H8.31615C1.59209 24 0 22.4079 0 15.6839V8.31615C0 1.59209 1.59209 0 8.31615 0Z" fill="#2F9ACD"/>
<path d="M18.3728 6.06307L5.02626 10.9568C4.89038 11.0066 4.80005 11.136 4.80005 11.2807C4.80005 11.4245 4.88925 11.5532 5.02389 11.6037L8.1685 12.7829C8.46512 12.8942 8.7969 12.8583 9.06287 12.6862L16.4777 7.88834C16.6167 7.79841 16.8 7.89817 16.8 8.0637C16.8 8.12467 16.7734 8.1826 16.7271 8.22228L10.4293 13.6204C10.2076 13.8104 10.08 14.0878 10.08 14.3797V17.7598C10.3778 17.7598 10.6538 17.6035 10.807 17.3482L12 15.3598L15.7299 17.6909C15.8019 17.7359 15.8851 17.7598 15.97 17.7598C16.1762 17.7598 16.3564 17.6206 16.4084 17.421L19.1801 6.79615C19.1934 6.74544 19.2 6.69324 19.2 6.64082C19.2 6.21309 18.7744 5.91582 18.3728 6.06307Z" fill="white"/>
</svg>
