<svg width="100" height="42" viewBox="0 0 100 42" fill="none" xmlns="http://www.w3.org/2000/svg">
<path d="M0 20C0 8.9543 8.95431 0 20 0H100V22C100 33.0457 91.0457 42 80 42H0V20Z" fill="#FC784E"/>
<path d="M24.416 30.192C23.136 30.192 21.912 30 20.744 29.616C19.576 29.216 18.656 28.704 17.984 28.08L18.872 26.208C19.512 26.768 20.328 27.232 21.32 27.6C22.312 27.968 23.344 28.152 24.416 28.152C25.392 28.152 26.184 28.04 26.792 27.816C27.4 27.592 27.848 27.288 28.136 26.904C28.424 26.504 28.568 26.056 28.568 25.56C28.568 24.984 28.376 24.52 27.992 24.168C27.624 23.816 27.136 23.536 26.528 23.328C25.936 23.104 25.28 22.912 24.56 22.752C23.84 22.592 23.112 22.408 22.376 22.2C21.656 21.976 20.992 21.696 20.384 21.36C19.792 21.024 19.312 20.576 18.944 20.016C18.576 19.44 18.392 18.704 18.392 17.808C18.392 16.944 18.616 16.152 19.064 15.432C19.528 14.696 20.232 14.112 21.176 13.68C22.136 13.232 23.352 13.008 24.824 13.008C25.8 13.008 26.768 13.136 27.728 13.392C28.688 13.648 29.52 14.016 30.224 14.496L29.432 16.416C28.712 15.936 27.952 15.592 27.152 15.384C26.352 15.16 25.576 15.048 24.824 15.048C23.88 15.048 23.104 15.168 22.496 15.408C21.888 15.648 21.44 15.968 21.152 16.368C20.88 16.768 20.744 17.216 20.744 17.712C20.744 18.304 20.928 18.776 21.296 19.128C21.68 19.48 22.168 19.76 22.76 19.968C23.368 20.176 24.032 20.368 24.752 20.544C25.472 20.704 26.192 20.888 26.912 21.096C27.648 21.304 28.312 21.576 28.904 21.912C29.512 22.248 30 22.696 30.368 23.256C30.736 23.816 30.92 24.536 30.92 25.416C30.92 26.264 30.688 27.056 30.224 27.792C29.76 28.512 29.04 29.096 28.064 29.544C27.104 29.976 25.888 30.192 24.416 30.192ZM31.8822 30L39.4903 13.2H41.8663L49.4983 30H46.9783L40.1863 14.544H41.1463L34.3543 30H31.8822ZM35.1223 25.8L35.7703 23.88H45.2263L45.9223 25.8H35.1223ZM52.0044 30V13.2H54.4044V27.912H63.5004V30H52.0044ZM68.4384 20.448H77.0784V22.488H68.4384V20.448ZM68.6544 27.912H78.4464V30H66.2544V13.2H78.1104V15.288H68.6544V27.912Z" fill="white"/>
</svg>
