<svg width="16" height="16" viewBox="0 0 16 16" fill="none" xmlns="http://www.w3.org/2000/svg">
<rect width="16" height="16" rx="2" fill="#476B59"/>
<path fill-rule="evenodd" clip-rule="evenodd" d="M3.3879 2.12647C2.49029 2.40857 1.79246 2.93113 1.35213 3.7766C0.975296 4.5092 1.00034 4.88697 1.00034 5.5532C1.00034 6.21942 1.91345 8.31351 4.20961 10.7246C4.98918 11.5433 5.4122 11.9047 5.47739 11.8078C5.64179 11.5634 5.61021 11.5154 4.6106 10.4897C3.32155 9.16693 2.47717 8.097 1.98374 7.1609C1.05926 5.4069 1.52277 3.55781 3.08025 2.78647C3.7936 2.43324 4.94308 2.43108 5.64281 2.78154C6.15955 3.04042 6.96827 3.77047 7.20258 4.18966C7.32609 4.4105 7.33717 4.40882 7.48463 4.14838C7.62114 3.90743 7.58357 3.81633 7.14718 3.32974C6.17865 2.24971 4.60181 1.74495 3.3879 2.12647ZM10.6815 2.10239C9.8777 2.255 8.85046 2.94389 8.31781 3.68743C7.6354 4.63965 7.0923 6.56745 6.8077 9.04718L6.74874 9.5612L8.10579 10.1667C8.85225 10.4998 9.79633 10.9138 10.2037 11.0869L10.9445 11.4016L11.6681 10.644C12.764 9.49669 13.9055 8.2062 14.3679 7.3298C14.7427 6.619 14.8372 6.4415 14.9545 5.5532C15.0717 4.6649 14.9516 4.09675 14.7199 3.68743C13.9665 2.35598 12.188 1.81632 10.6815 2.10239ZM6.48642 10.3724C6.28166 10.737 5.96115 11.8751 5.96115 12.2376C5.96115 13.2352 7.05199 14.0921 8.15308 13.992C8.48442 13.962 8.87173 13.8268 9.07394 13.7015C9.41801 13.4885 10.418 12.1767 10.418 11.9385C10.418 11.8792 9.68746 11.5033 8.79444 11.1033C6.58104 10.1116 6.62497 10.1255 6.48642 10.3724Z" fill="white"/>
</svg>
