<svg width="82" height="82" viewBox="0 0 82 82" fill="none" xmlns="http://www.w3.org/2000/svg">
<rect x="0.5" y="0.5" width="81" height="81" rx="19.5" fill="#476B59"/>
<g clip-path="url(#clip0_1493_26633)">
<path d="M60.6798 43.4657H58.8427C55.6734 43.4657 52.5544 42.3571 49.8233 40.2596L44.8821 36.4649C42.4402 34.5896 40.4433 31.8752 39.1073 28.6155L37.9138 25.7033C37.3707 24.3781 36.1181 23.8103 35.0618 24.4109L33.5524 25.2692C32.7408 25.7307 32.2162 26.7752 32.2162 27.9301V29.454C32.2162 30.0567 31.943 30.6028 31.5201 30.8456C29.6397 31.9247 27.4864 31.3978 26.0339 29.5031C25.6745 29.0342 25.1965 28.776 24.6881 28.776C23.6387 28.776 22.7849 29.8897 22.7849 31.2584V32.5542C22.7849 33.6462 22.4589 34.673 21.8668 35.4452C21.0202 36.5494 20.554 38.0176 20.554 39.5791V46.1526L18.1078 51.0923C18.1046 51.0988 18.1021 51.1058 18.0989 51.1123C18.0912 51.1288 18.0836 51.1453 18.0767 51.1625C18.0727 51.1726 18.0692 51.1829 18.0654 51.1931C18.0597 51.2087 18.0542 51.2242 18.0491 51.2403C18.0453 51.2526 18.042 51.2651 18.0387 51.2776C18.0349 51.2919 18.031 51.306 18.0277 51.3207C18.0243 51.3352 18.0217 51.3499 18.019 51.3646C18.0167 51.3775 18.0142 51.3904 18.0123 51.4035C18.0098 51.4204 18.0081 51.4373 18.0064 51.4542C18.0052 51.4656 18.0039 51.477 18.0031 51.4886C18.0017 51.5075 18.0013 51.5265 18.0009 51.5453C18.0008 51.5532 18 51.561 18 51.5691C18 51.5725 18.0002 51.5759 18.0002 51.5794C18.0002 51.5847 18.0004 51.59 18.0004 51.5953C18.0113 55.0335 20.1587 57.8263 22.7971 57.8263H56.3104C60.5504 57.8263 64 53.3269 64 47.7964C64 45.4085 62.5106 43.4657 60.6798 43.4657ZM33.5638 29.4538V27.9299C33.5638 27.4744 33.7707 27.0625 34.0908 26.8804L35.6002 26.0221C36.0167 25.7853 36.511 26.0092 36.7251 26.5319L37.9186 29.4441C38.1635 30.0417 38.4306 30.6208 38.7152 31.1831L36.6978 32.2235C35.7269 31.2847 34.5819 30.7407 33.3946 30.6345C33.5044 30.2643 33.5638 29.8653 33.5638 29.4538ZM24.1326 32.554V31.2583C24.1326 30.8588 24.3817 30.5337 24.6881 30.5337C24.8365 30.5337 24.976 30.6092 25.0809 30.746C26.9089 33.1304 29.6089 33.8112 31.9827 32.4981L32.0847 32.4742C33.2181 32.2087 34.3668 32.4671 35.3529 33.1823L32.3785 35.5649C30.0712 37.4131 27.2607 37.8913 24.6674 36.877L23.1118 36.2685C23.7727 35.2245 24.1326 33.9254 24.1326 32.554ZM21.9016 43.7786H22.751C23.6278 43.7786 24.3755 44.5119 24.6536 45.5327H21.9016V43.7786ZM52.0605 51.8268H56.4163C58.5804 51.8268 60.6704 51.0513 62.5021 49.5809C61.8747 53.2869 59.3377 56.0685 56.3104 56.0685H22.7972C20.959 56.0685 19.4522 54.1832 19.3532 51.8172L21.5948 47.2906H27.0484C28.0858 47.2906 29.0608 47.8175 29.7943 48.7742L30.1488 49.2365C31.4294 50.9067 33.1319 51.8266 34.9427 51.8266H49.1064C49.4786 51.8266 49.7803 51.4331 49.7803 50.9477C49.7803 50.4623 49.4786 50.0688 49.1064 50.0688H34.9426C34.1295 50.0688 33.3436 49.837 32.6293 49.398L34.2475 43.8008C34.3789 43.3465 34.2031 42.8395 33.8548 42.6683C33.5066 42.4971 33.1179 42.7263 32.9866 43.1805L31.4688 48.4299C31.3424 48.2922 31.2195 48.1474 31.1016 47.9935L30.7472 47.5313C29.7592 46.2426 28.4456 45.5329 27.0483 45.5329H26.0495C25.7364 43.5316 24.3766 42.021 22.751 42.021H21.9016V39.5793C21.9016 38.9368 22.0153 38.3174 22.2289 37.7587L24.2803 38.5611C27.2409 39.719 30.4496 39.1731 33.0837 37.0632L35.2591 35.3206L33.9263 39.9299C33.795 40.384 33.9708 40.8912 34.319 41.0624C34.3974 41.101 34.4777 41.1192 34.5568 41.1192C34.8291 41.1192 35.0856 40.9021 35.1874 40.5502L37.1097 33.9017L39.5279 32.6547C39.6741 32.8971 39.8249 33.1342 39.9787 33.368L37.6924 37.0046C37.4565 37.3799 37.4984 37.9338 37.7862 38.2415C37.9116 38.3756 38.0627 38.4408 38.2131 38.4408C38.408 38.4408 38.6013 38.3312 38.7346 38.1193L40.9049 34.6672C41.3189 35.2022 41.7541 35.7094 42.2095 36.1863L41.1435 40.3756C41.0262 40.8363 41.2175 41.3337 41.5708 41.4865C41.6412 41.517 41.7127 41.5315 41.7831 41.5315C42.0655 41.5315 42.3286 41.2981 42.4225 40.9293L43.3509 37.2809C43.6278 37.5238 43.9097 37.7583 44.1983 37.9801L44.7254 38.3848L44.5259 42.5239C44.5026 43.0083 44.7848 43.4258 45.1562 43.4562C45.1705 43.4574 45.1848 43.458 45.1991 43.458C45.552 43.458 45.8486 43.0999 45.8711 42.6342L46.0277 39.3849L47.6076 40.5983L47.7571 43.757C47.7791 44.2231 48.0757 44.5818 48.429 44.5818C48.4429 44.5818 48.457 44.5812 48.4711 44.5801C48.8426 44.5502 49.1251 44.1331 49.1021 43.6487L49.0087 41.6742L49.1396 41.7747C49.8297 42.3047 50.5431 42.7753 51.2745 43.1861L51.2946 44.4039C51.3025 44.8828 51.6026 45.264 51.9679 45.264C51.9729 45.264 51.9777 45.264 51.9827 45.2637C52.3548 45.2533 52.6499 44.8515 52.6419 44.3662L52.6337 43.8715C54.6243 44.7625 56.7229 45.2239 58.8427 45.2239H60.6798C61.6541 45.2239 62.4656 46.1497 62.6242 47.3623L62.2784 47.6754C60.5488 49.2413 58.5218 50.069 56.4163 50.069H52.0605C51.6883 50.069 51.3867 50.4625 51.3867 50.9479C51.3867 51.4333 51.6883 51.8268 52.0605 51.8268Z" fill="white"/>
<path d="M27.5459 51.6127C27.9282 51.6127 28.2382 51.2084 28.2382 50.7097C28.2382 50.2109 27.9282 49.8066 27.5459 49.8066C27.1635 49.8066 26.8535 50.2109 26.8535 50.7097C26.8535 51.2084 27.1635 51.6127 27.5459 51.6127Z" fill="white"/>
<path d="M24.9746 51.6127C25.3569 51.6127 25.6669 51.2084 25.6669 50.7097C25.6669 50.2109 25.3569 49.8066 24.9746 49.8066C24.5922 49.8066 24.2822 50.2109 24.2822 50.7097C24.2822 51.2084 24.5922 51.6127 24.9746 51.6127Z" fill="white"/>
<path d="M22.2973 51.6127C22.6797 51.6127 22.9897 51.2084 22.9897 50.7097C22.9897 50.2109 22.6797 49.8066 22.2973 49.8066C21.9149 49.8066 21.605 50.2109 21.605 50.7097C21.605 51.2084 21.9149 51.6127 22.2973 51.6127Z" fill="white"/>
</g>
<rect x="0.5" y="0.5" width="81" height="81" rx="19.5" stroke="white"/>
<defs>
<clipPath id="clip0_1493_26633">
<rect width="46" height="36" fill="white" transform="translate(18 23)"/>
</clipPath>
</defs>
</svg>
