<svg width="24" height="24" viewBox="0 0 24 24" fill="none" xmlns="http://www.w3.org/2000/svg">
<path fill-rule="evenodd" clip-rule="evenodd" d="M8.31615 0H15.6839C22.4079 0 24 1.59209 24 8.31615V15.6839C24 22.4079 22.4079 24 15.6839 24H8.31615C1.59209 24 0 22.4079 0 15.6839V8.31615C0 1.59209 1.59209 0 8.31615 0Z" fill="#4A76A7"/>
<path fill-rule="evenodd" clip-rule="evenodd" d="M19.3159 8.07872C19.4345 7.68728 19.3159 7.40257 18.7906 7.40257H17.0452C16.6046 7.40257 16.4013 7.65166 16.2827 7.91861C16.2827 7.91861 15.3846 10.1962 14.1306 11.673C13.7239 12.1001 13.5375 12.2424 13.3173 12.2424C13.1986 12.2424 13.0462 12.1001 13.0462 11.7086V8.06091C13.0462 7.59829 12.9106 7.38477 12.5378 7.38477H9.79267C9.52154 7.38477 9.35211 7.59829 9.35211 7.81182C9.35211 8.25668 9.97905 8.36342 10.0468 9.60897V12.3136C10.0468 12.9008 9.94519 13.0075 9.72488 13.0075C9.1318 13.0075 7.69147 10.7122 6.82726 8.09652C6.65778 7.58049 6.48835 7.38477 6.0478 7.38477H4.28546C3.77711 7.38477 3.69238 7.63391 3.69238 7.9008C3.69238 8.38123 4.28546 10.8011 6.45444 14.004C7.89482 16.1926 9.94519 17.367 11.7922 17.367C12.9106 17.367 13.0462 17.1001 13.0462 16.6553V15.0005C13.0462 14.4666 13.1478 14.3777 13.5037 14.3777C13.7578 14.3777 14.2154 14.52 15.249 15.5698C16.4352 16.8154 16.6385 17.3848 17.2994 17.3848H19.0447C19.5531 17.3848 19.7903 17.1179 19.6548 16.6018C19.5023 16.0858 18.9261 15.3385 18.1805 14.4488C17.7738 13.9506 17.1638 13.399 16.9774 13.1321C16.7232 12.7763 16.791 12.6339 16.9774 12.3136C16.9605 12.3136 19.0956 9.14635 19.3159 8.07872Z" fill="white"/>
</svg>
