<svg width="48" height="38" viewBox="0 0 48 38" fill="none" xmlns="http://www.w3.org/2000/svg">
<path fill-rule="evenodd" clip-rule="evenodd" d="M45.917 37.6663C45.917 37.6663 49.0003 37.6663 49.0003 34.5552C49.0003 31.4441 45.917 22.1108 33.5837 22.1108C21.2503 22.1108 18.167 31.4441 18.167 34.5552C18.167 37.6663 21.2503 37.6663 21.2503 37.6663H45.917ZM21.3182 34.5552H45.8492C45.8636 34.5535 45.878 34.5515 45.8923 34.549L45.917 34.5428C45.9108 33.7215 45.4021 31.3383 43.5737 29.1917C41.8717 27.1788 38.8808 25.2219 33.5837 25.2219C28.2896 25.2219 25.2987 27.1819 23.5937 29.1917C21.7652 31.3383 21.2534 33.7246 21.2503 34.5428C21.2729 34.5472 21.2955 34.5513 21.3182 34.5552ZM33.5837 15.8886C35.2192 15.8886 36.7877 15.233 37.9441 14.0661C39.1006 12.8992 39.7503 11.3166 39.7503 9.66634C39.7503 8.0161 39.1006 6.43346 37.9441 5.26656C36.7877 4.09967 35.2192 3.44412 33.5837 3.44412C31.9482 3.44412 30.3796 4.09967 29.2232 5.26656C28.0667 6.43346 27.417 8.0161 27.417 9.66634C27.417 11.3166 28.0667 12.8992 29.2232 14.0661C30.3796 15.233 31.9482 15.8886 33.5837 15.8886ZM42.8337 9.66634C42.8337 10.892 42.5944 12.1057 42.1295 13.2381C41.6647 14.3704 40.9833 15.3993 40.1244 16.266C39.2655 17.1327 38.2457 17.8202 37.1235 18.2892C36.0012 18.7583 34.7984 18.9997 33.5837 18.9997C32.3689 18.9997 31.1661 18.7583 30.0438 18.2892C28.9216 17.8202 27.9019 17.1327 27.0429 16.266C26.184 15.3993 25.5026 14.3704 25.0378 13.2381C24.5729 12.1057 24.3337 10.892 24.3337 9.66634C24.3337 7.19099 25.3082 4.81702 27.0429 3.06668C28.7776 1.31634 31.1304 0.333008 33.5837 0.333008C36.0369 0.333008 38.3897 1.31634 40.1244 3.06668C41.8591 4.81702 42.8337 7.19099 42.8337 9.66634ZM21.053 22.9819C19.8196 22.59 18.5482 22.3324 17.2605 22.2135C16.5369 22.144 15.8105 22.1098 15.0837 22.1108C2.75033 22.1108 -0.333008 31.4441 -0.333008 34.5552C-0.333008 36.6303 0.693742 37.6663 2.75033 37.6663H15.7497C15.2926 36.6951 15.0646 35.6302 15.0837 34.5552C15.0837 31.413 16.2461 28.2023 18.4445 25.5206C19.1937 24.6059 20.0663 23.7503 21.053 22.9819ZM14.837 25.2219C9.69399 25.2841 6.77408 27.213 5.09366 29.1917C3.25291 31.3508 2.75033 33.7432 2.75033 34.5552H12.0003C12.0003 31.3041 12.9962 28.0655 14.837 25.2219ZM4.29199 11.2219C4.29199 8.74654 5.26654 6.37257 7.00125 4.62223C8.73597 2.87189 11.0887 1.88856 13.542 1.88856C15.9952 1.88856 18.348 2.87189 20.0827 4.62223C21.8174 6.37257 22.792 8.74654 22.792 11.2219C22.792 13.6972 21.8174 16.0712 20.0827 17.8216C18.348 19.5719 15.9952 20.5552 13.542 20.5552C11.0887 20.5552 8.73597 19.5719 7.00125 17.8216C5.26654 16.0712 4.29199 13.6972 4.29199 11.2219ZM13.542 4.99967C11.9065 4.99967 10.338 5.65523 9.1815 6.82212C8.02503 7.98901 7.37533 9.57166 7.37533 11.2219C7.37533 12.8721 8.02503 14.4548 9.1815 15.6217C10.338 16.7886 11.9065 17.4441 13.542 17.4441C15.1775 17.4441 16.746 16.7886 17.9025 15.6217C19.059 14.4548 19.7087 12.8721 19.7087 11.2219C19.7087 9.57166 19.059 7.98901 17.9025 6.82212C16.746 5.65523 15.1775 4.99967 13.542 4.99967Z" fill="#476B59"/>
</svg>
