<svg width="135" height="26" viewBox="0 0 135 26" fill="none" xmlns="http://www.w3.org/2000/svg">
<path d="M0.528 0.999998H1.552C3.23733 0.999998 4.47467 1.39466 5.264 2.184C6.05333 2.952 6.448 4.09333 6.448 5.608C6.448 6.48267 6.192 7.32533 5.68 8.136C5.168 8.92533 4.54933 9.45867 3.824 9.736C5.65867 10.0347 7.07733 10.8027 8.08 12.04C9.08267 13.2773 9.584 14.8987 9.584 16.904C9.584 18.504 9.232 19.9227 8.528 21.16C7.824 22.376 6.85333 23.3253 5.616 24.008C4.4 24.6693 3.04533 25 1.552 25H0.528V0.999998ZM1.808 9.448C2.832 9.448 3.696 9.07467 4.4 8.328C5.104 7.58133 5.456 6.664 5.456 5.576C5.456 4.36 5.15733 3.44267 4.56 2.824C3.984 2.20533 3.06667 1.896 1.808 1.896H1.552V9.448H1.808ZM1.808 24.104C3.06667 24.104 4.208 23.8053 5.232 23.208C6.256 22.5893 7.06667 21.736 7.664 20.648C8.26133 19.56 8.56 18.3333 8.56 16.968C8.56 14.7707 7.97333 13.1173 6.8 12.008C5.648 10.8773 3.984 10.312 1.808 10.312H1.552V24.104H1.808ZM25.2028 25.64C22.9628 25.64 20.8828 25.0533 18.9628 23.88C17.0428 22.7067 15.5174 21.1493 14.3868 19.208C13.2774 17.2453 12.7228 15.144 12.7228 12.904C12.7228 10.6853 13.2881 8.616 14.4188 6.696C15.5494 4.75467 17.0748 3.21867 18.9948 2.088C20.9148 0.935999 22.9948 0.359999 25.2348 0.359999C27.4961 0.359999 29.5761 0.925332 31.4748 2.056C33.3734 3.18667 34.8774 4.72267 35.9868 6.664C37.1174 8.584 37.6828 10.664 37.6828 12.904C37.6828 15.208 37.1174 17.3413 35.9868 19.304C34.8774 21.2453 33.3628 22.792 31.4428 23.944C29.5441 25.0747 27.4641 25.64 25.2028 25.64ZM25.2028 24.712C27.2508 24.712 29.1494 24.1893 30.8988 23.144C32.6481 22.0773 34.0348 20.648 35.0588 18.856C36.1041 17.0427 36.6268 15.08 36.6268 12.968C36.6268 10.8773 36.1148 8.936 35.0908 7.144C34.0668 5.352 32.6801 3.93333 30.9308 2.888C29.1814 1.82133 27.2828 1.288 25.2348 1.288C23.1654 1.288 21.2561 1.82133 19.5068 2.888C17.7574 3.93333 16.3601 5.352 15.3148 7.144C14.2908 8.936 13.7788 10.8773 13.7788 12.968C13.7788 15.08 14.2908 17.0427 15.3148 18.856C16.3601 20.648 17.7574 22.0773 19.5068 23.144C21.2561 24.1893 23.1548 24.712 25.2028 24.712ZM55.788 25L43.084 11.656V25H42.028V0.999998H43.084V9.704L53.1 0.999998H54.604L43.372 10.6L57.196 25H55.788ZM82.9608 25H81.8408L77.2968 15.848H64.5608L60.1128 25H58.9928L70.9608 0.424L82.9608 25ZM76.9128 14.92L70.8968 2.728L65.0088 14.92H76.9128ZM86.528 0.999998H87.552C91.3707 0.999998 94.3147 2.04533 96.384 4.136C98.4747 6.20533 99.52 9.16 99.52 13C99.52 15.1973 98.9867 17.2133 97.92 19.048C96.8533 20.8827 95.4027 22.3333 93.568 23.4C91.7547 24.4667 89.7493 25 87.552 25H86.528V0.999998ZM87.808 24.008C89.7707 24.008 91.5627 23.528 93.184 22.568C94.8053 21.5867 96.0853 20.2533 97.024 18.568C97.984 16.8827 98.464 15.0267 98.464 13C98.464 9.45867 97.536 6.73867 95.68 4.84C93.8453 2.92 91.2213 1.96 87.808 1.96H87.552V24.008H87.808ZM115.015 1.288C112.903 1.288 110.973 1.832 109.223 2.92C107.495 3.98667 106.119 5.42667 105.095 7.24C104.093 9.032 103.591 10.9627 103.591 13.032C103.591 15.1227 104.103 17.064 105.127 18.856C106.151 20.648 107.506 22.0773 109.191 23.144C110.898 24.1893 112.733 24.712 114.695 24.712C115.847 24.712 116.871 24.6053 117.767 24.392C118.685 24.1787 119.559 23.8373 120.391 23.368V15.848H112.455V14.92H121.447V22.696L121.511 22.664V23.848C120.487 24.4667 119.431 24.9147 118.343 25.192C117.277 25.4907 116.103 25.64 114.823 25.64C112.583 25.64 110.525 25.096 108.647 24.008C106.77 22.8987 105.277 21.384 104.167 19.464C103.079 17.5227 102.535 15.3467 102.535 12.936C102.535 10.6107 103.101 8.488 104.231 6.568C105.383 4.648 106.909 3.13333 108.807 2.024C110.727 0.914665 112.765 0.359999 114.919 0.359999C116.413 0.359999 117.597 0.498665 118.471 0.775999C119.346 1.032 120.359 1.49066 121.511 2.152V3.336C120.423 2.58933 119.41 2.06667 118.471 1.768C117.554 1.448 116.402 1.288 115.015 1.288ZM125.841 0.999998H134.449V1.928H126.897V14.984H133.201V15.912H126.897V24.072H134.449V25H125.841V0.999998Z" fill="#1A1A1A"/>
</svg>
