<svg width="142" height="24" viewBox="0 0 142 24" fill="none" xmlns="http://www.w3.org/2000/svg">
<path d="M12.376 23.256C10.6693 23.256 9.09067 22.9787 7.64 22.424C6.21067 21.848 4.96267 21.048 3.896 20.024C2.85067 18.9787 2.02933 17.7627 1.432 16.376C0.834667 14.9893 0.536 13.464 0.536 11.8C0.536 10.136 0.834667 8.61067 1.432 7.224C2.02933 5.83733 2.86133 4.632 3.928 3.608C4.99467 2.56267 6.24267 1.76267 7.672 1.208C9.12267 0.631999 10.7013 0.344 12.408 0.344C14.136 0.344 15.7253 0.642666 17.176 1.24C18.648 1.816 19.896 2.68 20.92 3.832L18.84 5.848C17.9867 4.952 17.0267 4.29067 15.96 3.864C14.8933 3.416 13.752 3.192 12.536 3.192C11.2773 3.192 10.104 3.40533 9.016 3.832C7.94933 4.25867 7.02133 4.856 6.232 5.624C5.44267 6.392 4.824 7.30933 4.376 8.376C3.94933 9.42133 3.736 10.5627 3.736 11.8C3.736 13.0373 3.94933 14.1893 4.376 15.256C4.824 16.3013 5.44267 17.208 6.232 17.976C7.02133 18.744 7.94933 19.3413 9.016 19.768C10.104 20.1947 11.2773 20.408 12.536 20.408C13.752 20.408 14.8933 20.1947 15.96 19.768C17.0267 19.32 17.9867 18.6373 18.84 17.72L20.92 19.736C19.896 20.888 18.648 21.7627 17.176 22.36C15.7253 22.9573 14.1253 23.256 12.376 23.256ZM21.5617 23L31.7058 0.599998H34.8738L45.0498 23H41.6898L32.6338 2.392H33.9138L24.8578 23H21.5617ZM25.8818 17.4L26.7458 14.84H39.3538L40.2818 17.4H25.8818ZM48.3913 23V0.599998H57.1273C59.0899 0.599998 60.7646 0.909332 62.1513 1.528C63.5379 2.14667 64.6046 3.04267 65.3513 4.216C66.0979 5.38933 66.4713 6.78667 66.4713 8.408C66.4713 10.0293 66.0979 11.4267 65.3513 12.6C64.6046 13.752 63.5379 14.648 62.1513 15.288C60.7646 15.9067 59.0899 16.216 57.1273 16.216H50.1513L51.5913 14.712V23H48.3913ZM51.5913 15.032L50.1513 13.432H57.0313C59.0793 13.432 60.6259 12.9947 61.6713 12.12C62.7379 11.2453 63.2713 10.008 63.2713 8.408C63.2713 6.808 62.7379 5.57067 61.6713 4.696C60.6259 3.82133 59.0793 3.384 57.0313 3.384H50.1513L51.5913 1.784V15.032ZM71.1725 23V0.599998H79.9085C81.8712 0.599998 83.5458 0.909332 84.9325 1.528C86.3192 2.14667 87.3858 3.04267 88.1325 4.216C88.8792 5.38933 89.2525 6.78667 89.2525 8.408C89.2525 10.0293 88.8792 11.4267 88.1325 12.6C87.3858 13.752 86.3192 14.6373 84.9325 15.256C83.5458 15.8747 81.8712 16.184 79.9085 16.184H72.9325L74.3725 14.712V23H71.1725ZM86.1485 23L80.4525 14.872H83.8765L89.6365 23H86.1485ZM74.3725 15.032L72.9325 13.464H79.8125C81.8605 13.464 83.4072 13.0267 84.4525 12.152C85.5192 11.256 86.0525 10.008 86.0525 8.408C86.0525 6.808 85.5192 5.57067 84.4525 4.696C83.4072 3.82133 81.8605 3.384 79.8125 3.384H72.9325L74.3725 1.784V15.032ZM94.4225 23V0.599998H97.6225V23H94.4225ZM102.345 23V20.824L117.417 2.136L117.769 3.384H102.569V0.599998H120.649V2.776L105.641 21.464L105.257 20.216H121.065V23H102.345ZM128.272 10.264H139.792V12.984H128.272V10.264ZM128.56 20.216H141.616V23H125.36V0.599998H141.168V3.384H128.56V20.216Z" fill="#1A1A1A"/>
</svg>
