<svg width="152" height="32" viewBox="0 0 152 32" fill="none" xmlns="http://www.w3.org/2000/svg">
<path d="M0.75 31V1H30.75V4.125H4.5V14.125H29.5V17.25H4.5V27.875H30.75V31H0.75ZM63.875 1H69.5L48.25 15.6875L70.125 31H64.5L44.5 17.25H39.5V31H35.75V1H39.5V14.125H44.5L63.875 1ZM103.25 1H108.875L87.625 15.6875L109.5 31H103.875L83.875 17.25H78.875V31H75.125V1H78.875V14.125H83.875L103.25 1ZM138.27 0.375C140.561 0.375 142.488 0.518229 144.051 0.804688C145.626 1.07812 146.922 1.5013 147.938 2.07422C148.953 2.63411 149.734 3.34375 150.281 4.20312C150.828 5.0625 151.225 6.07161 151.473 7.23047C151.733 8.38932 151.883 9.69792 151.922 11.1562C151.974 12.6146 152 14.2292 152 16C152 17.7708 151.974 19.3854 151.922 20.8438C151.883 22.3021 151.733 23.6107 151.473 24.7695C151.225 25.9284 150.828 26.9375 150.281 27.7969C149.734 28.6562 148.953 29.3724 147.938 29.9453C146.922 30.5052 145.626 30.9219 144.051 31.1953C142.488 31.4818 140.561 31.625 138.27 31.625H126.98C124.689 31.625 122.755 31.4818 121.18 31.1953C119.617 30.9219 118.328 30.5052 117.312 29.9453C116.297 29.3724 115.509 28.6562 114.949 27.7969C114.402 26.9375 113.999 25.9284 113.738 24.7695C113.491 23.6107 113.348 22.3021 113.309 20.8438C113.27 19.3854 113.25 17.7708 113.25 16C113.25 14.2292 113.27 12.6146 113.309 11.1562C113.348 9.69792 113.491 8.38932 113.738 7.23047C113.999 6.07161 114.402 5.0625 114.949 4.20312C115.509 3.34375 116.297 2.63411 117.312 2.07422C118.328 1.5013 119.617 1.07812 121.18 0.804688C122.755 0.518229 124.689 0.375 126.98 0.375H138.27ZM138.27 28.5C139.923 28.5 141.316 28.4544 142.449 28.3633C143.595 28.2591 144.539 28.0573 145.281 27.7578C146.023 27.4583 146.596 27.0286 147 26.4688C147.404 25.9089 147.697 25.1667 147.879 24.2422C148.061 23.3177 148.165 22.1849 148.191 20.8438C148.23 19.4896 148.25 17.875 148.25 16C148.25 14.125 148.23 12.5169 148.191 11.1758C148.165 9.82161 148.061 8.68229 147.879 7.75781C147.697 6.83333 147.404 6.09115 147 5.53125C146.596 4.97135 146.023 4.54167 145.281 4.24219C144.552 3.94271 143.615 3.7474 142.469 3.65625C141.336 3.55208 139.936 3.5 138.27 3.5H126.98C125.314 3.5 123.908 3.55208 122.762 3.65625C121.629 3.7474 120.691 3.94271 119.949 4.24219C119.207 4.54167 118.634 4.97135 118.23 5.53125C117.827 6.09115 117.534 6.83333 117.352 7.75781C117.169 8.68229 117.065 9.82161 117.039 11.1758C117.013 12.5169 117 14.125 117 16C117 17.875 117.013 19.4896 117.039 20.8438C117.078 22.1849 117.189 23.3177 117.371 24.2422C117.553 25.1667 117.84 25.9089 118.23 26.4688C118.634 27.0286 119.207 27.4583 119.949 27.7578C120.691 28.0573 121.629 28.2591 122.762 28.3633C123.908 28.4544 125.314 28.5 126.98 28.5H138.27Z" fill="#1A1A1A"/>
</svg>
