<svg width="144" height="50" viewBox="0 0 144 50" fill="none" xmlns="http://www.w3.org/2000/svg">
<path d="M57.9606 26.1924C56.9583 26.1924 56.0311 26.035 55.1791 25.7203C54.3396 25.3935 53.6067 24.9396 52.9802 24.3586C52.3663 23.7655 51.8839 23.0755 51.5331 22.2888C51.1822 21.502 51.0068 20.6365 51.0068 19.6924C51.0068 18.7482 51.1822 17.8828 51.5331 17.096C51.8839 16.3092 52.3725 15.6253 52.999 15.0443C53.6255 14.4512 54.3584 13.9973 55.1979 13.6826C56.0499 13.3558 56.9771 13.1924 57.9794 13.1924C58.9943 13.1924 59.9277 13.3618 60.7797 13.7008C61.6442 14.0276 62.3772 14.5178 62.9786 15.1714L61.757 16.3153C61.2558 15.8069 60.692 15.4317 60.0655 15.1896C59.4391 14.9354 58.7687 14.8083 58.0546 14.8083C57.3153 14.8083 56.6262 14.9293 55.9872 15.1714C55.3608 15.4135 54.8157 15.7524 54.3522 16.1882C53.8886 16.6239 53.5252 17.1444 53.2621 17.7496C53.0115 18.3428 52.8862 18.9903 52.8862 19.6924C52.8862 20.3944 53.0115 21.0481 53.2621 21.6533C53.5252 22.2464 53.8886 22.7608 54.3522 23.1966C54.8157 23.6323 55.3608 23.9712 55.9872 24.2133C56.6262 24.4554 57.3153 24.5765 58.0546 24.5765C58.7687 24.5765 59.4391 24.4554 60.0655 24.2133C60.692 23.9591 61.2558 23.5718 61.757 23.0513L62.9786 24.1952C62.3772 24.8488 61.6442 25.3451 60.7797 25.684C59.9277 26.0229 58.988 26.1924 57.9606 26.1924Z" fill="white"/>
<path d="M66.9653 26.0471V17.4955L67.4163 17.9494H63.3192V16.4242H72.4155V17.9494H68.3372L68.7695 17.4955V26.0471H66.9653Z" fill="white"/>
<path d="M74.2604 26.0471V16.4242H76.0646V23.4326L82.1727 16.4242H83.8078V26.0471H82.0035V19.0388L75.9143 26.0471H74.2604Z" fill="white"/>
<path d="M85.6559 26.029L85.7686 24.5583C85.8564 24.5704 85.9378 24.5825 86.013 24.5946C86.0881 24.6067 86.1571 24.6128 86.2197 24.6128C86.6206 24.6128 86.9339 24.4796 87.1594 24.2133C87.3975 23.947 87.5729 23.596 87.6856 23.1603C87.7984 22.7124 87.8798 22.2101 87.93 21.6533C87.9801 21.0965 88.0177 20.5397 88.0427 19.9829L88.2119 16.4242H95.861V26.0471H94.0568V17.441L94.4891 17.9494H89.3771L89.7906 17.4228L89.659 20.0918C89.6214 20.9391 89.5525 21.732 89.4523 22.4703C89.352 23.2087 89.1954 23.8563 88.9824 24.4131C88.782 24.9698 88.5 25.4056 88.1367 25.7203C87.7859 26.035 87.3285 26.1924 86.7647 26.1924C86.6018 26.1924 86.4264 26.1742 86.2385 26.1379C86.0631 26.1137 85.8689 26.0774 85.6559 26.029Z" fill="white"/>
<path d="M103.954 19.6924C105.22 19.7045 106.184 19.9829 106.848 20.5276C107.512 21.0723 107.845 21.8409 107.845 22.8334C107.845 23.8744 107.481 24.6793 106.754 25.2482C106.028 25.805 105 26.0774 103.672 26.0653L99.3496 26.0471V16.4242H101.154V19.6742L103.954 19.6924ZM103.522 24.7399C104.336 24.752 104.95 24.5946 105.364 24.2678C105.79 23.941 106.003 23.4568 106.003 22.8153C106.003 22.1859 105.796 21.7259 105.383 21.4354C104.969 21.1449 104.349 20.9936 103.522 20.9815L101.154 20.9452V24.7217L103.522 24.7399Z" fill="white"/>
<path d="M110.16 26.0471V16.4242H111.964V20.5094H117.64V16.4242H119.444V26.0471H117.64V22.0164H111.964V26.0471H110.16Z" fill="white"/>
<path d="M129.06 26.0471V24.0136L128.966 23.6323V20.1644C128.966 19.4261 128.741 18.8572 128.29 18.4577C127.851 18.0462 127.187 17.8404 126.298 17.8404C125.709 17.8404 125.132 17.9373 124.569 18.1309C124.005 18.3125 123.529 18.5606 123.14 18.8753L122.388 17.5681C122.902 17.1686 123.516 16.866 124.23 16.6603C124.957 16.4424 125.715 16.3334 126.504 16.3334C127.87 16.3334 128.922 16.6542 129.662 17.2957C130.401 17.9373 130.771 18.9177 130.771 20.2371V26.0471H129.06ZM125.79 26.1561C125.051 26.1561 124.399 26.035 123.836 25.7929C123.284 25.5509 122.858 25.218 122.558 24.7943C122.257 24.3586 122.107 23.8684 122.107 23.3237C122.107 22.8032 122.232 22.3311 122.482 21.9075C122.746 21.4838 123.165 21.1449 123.742 20.8907C124.33 20.6365 125.12 20.5094 126.11 20.5094H129.267V21.7622H126.185C125.283 21.7622 124.675 21.9075 124.362 22.198C124.049 22.4885 123.892 22.8395 123.892 23.251C123.892 23.7231 124.086 24.1044 124.475 24.3949C124.863 24.6733 125.402 24.8125 126.091 24.8125C126.767 24.8125 127.356 24.6672 127.857 24.3767C128.371 24.0862 128.741 23.6626 128.966 23.1058L129.323 24.3041C129.085 24.873 128.666 25.3269 128.064 25.6658C127.463 25.9927 126.705 26.1561 125.79 26.1561Z" fill="white"/>
<path d="M140.391 26.0471V22.67L140.672 22.9969H137.496C136.168 22.9969 135.128 22.7245 134.376 22.1798C133.637 21.6351 133.268 20.8423 133.268 19.8013C133.268 18.6877 133.662 17.8465 134.452 17.2776C135.254 16.7087 136.319 16.4242 137.647 16.4242H142.007V26.0471H140.391ZM133.174 26.0471L135.88 22.3614H137.741L135.109 26.0471H133.174ZM140.391 22.1253V17.4591L140.672 17.9494H137.703C136.876 17.9494 136.237 18.1007 135.786 18.4033C135.335 18.6938 135.109 19.178 135.109 19.8558C135.109 21.1146 135.949 21.7441 137.628 21.7441H140.672L140.391 22.1253Z" fill="white"/>
<path d="M41.6045 44.898V34.4269H50.7634V44.898H48.9726V35.6123L49.4017 36.0865H42.9662L43.3952 35.6123V44.898H41.6045Z" fill="white"/>
<path d="M58.4627 45.0166C57.4679 45.0166 56.5849 44.7861 55.8139 44.3251C55.0429 43.8641 54.4336 43.2319 53.9859 42.4284C53.5382 41.6118 53.3144 40.6898 53.3144 39.6625C53.3144 38.6219 53.5382 37.7 53.9859 36.8965C54.4336 36.0931 55.0429 35.4674 55.8139 35.0196C56.5849 34.5586 57.4679 34.3281 58.4627 34.3281C59.4451 34.3281 60.3219 34.5586 61.0929 35.0196C61.8763 35.4674 62.4857 36.0931 62.9209 36.8965C63.3686 37.6868 63.5924 38.6088 63.5924 39.6625C63.5924 40.703 63.3686 41.625 62.9209 42.4284C62.4857 43.2319 61.8763 43.8641 61.0929 44.3251C60.3219 44.7861 59.4451 45.0166 58.4627 45.0166ZM58.4627 43.357C59.0969 43.357 59.6628 43.2055 60.1602 42.9026C60.6701 42.5997 61.068 42.1716 61.354 41.6184C61.64 41.052 61.7831 40.4001 61.7831 39.6625C61.7831 38.9117 61.64 38.2663 61.354 37.7263C61.068 37.1731 60.6701 36.745 60.1602 36.4421C59.6628 36.1392 59.0969 35.9877 58.4627 35.9877C57.8285 35.9877 57.2627 36.1392 56.7653 36.4421C56.2678 36.745 55.8699 37.1731 55.5714 37.7263C55.273 38.2663 55.1238 38.9117 55.1238 39.6625C55.1238 40.4001 55.273 41.052 55.5714 41.6184C55.8699 42.1716 56.2678 42.5997 56.7653 42.9026C57.2627 43.2055 57.8285 43.357 58.4627 43.357Z" fill="white"/>
<path d="M64.2835 44.898L68.5365 39.05L68.5178 40.0181L64.47 34.4269H66.466L69.5624 38.7339H68.7976L71.8941 34.4269H73.8527L69.749 40.0576L69.7676 39.05L74.0579 44.898H72.0247L68.7603 40.3144L69.4878 40.433L66.2794 44.898H64.2835Z" fill="white"/>
<path d="M79.8487 45.0166C78.8538 45.0166 77.9709 44.7861 77.1999 44.3251C76.4289 43.8641 75.8195 43.2319 75.3718 42.4284C74.9241 41.6118 74.7003 40.6898 74.7003 39.6625C74.7003 38.6219 74.9241 37.7 75.3718 36.8965C75.8195 36.0931 76.4289 35.4674 77.1999 35.0196C77.9709 34.5586 78.8538 34.3281 79.8487 34.3281C80.8311 34.3281 81.7078 34.5586 82.4788 35.0196C83.2623 35.4674 83.8716 36.0931 84.3068 36.8965C84.7545 37.6868 84.9784 38.6088 84.9784 39.6625C84.9784 40.703 84.7545 41.625 84.3068 42.4284C83.8716 43.2319 83.2623 43.8641 82.4788 44.3251C81.7078 44.7861 80.8311 45.0166 79.8487 45.0166ZM79.8487 43.357C80.4829 43.357 81.0487 43.2055 81.5461 42.9026C82.056 42.5997 82.4539 42.1716 82.74 41.6184C83.026 41.052 83.169 40.4001 83.169 39.6625C83.169 38.9117 83.026 38.2663 82.74 37.7263C82.4539 37.1731 82.056 36.745 81.5461 36.4421C81.0487 36.1392 80.4829 35.9877 79.8487 35.9877C79.2144 35.9877 78.6486 36.1392 78.1512 36.4421C77.6538 36.745 77.2558 37.1731 76.9574 37.7263C76.6589 38.2663 76.5097 38.9117 76.5097 39.6625C76.5097 40.4001 76.6589 41.052 76.9574 41.6184C77.2558 42.1716 77.6538 42.5997 78.1512 42.9026C78.6486 43.2055 79.2144 43.357 79.8487 43.357Z" fill="white"/>
<path d="M94.2439 44.009V36.0865H89.9536L89.8603 38.1017C89.8355 38.7602 89.7919 39.399 89.7298 40.0181C89.68 40.624 89.593 41.1837 89.4686 41.6974C89.3567 42.2111 89.1888 42.6326 88.965 42.9619C88.7411 43.2911 88.4427 43.4953 88.0696 43.5743L86.2975 43.2385C86.683 43.2516 86.9939 43.1199 87.2302 42.8433C87.4665 42.5536 87.6468 42.1584 87.7711 41.6579C87.9079 41.1574 88.0074 40.591 88.0696 39.9588C88.1318 39.3134 88.1815 38.6483 88.2188 37.9634L88.3681 34.4269H96.0346V44.009H94.2439ZM85.9058 47.3281V43.2385H97.5456V47.3281H95.8668V44.898H87.6033V47.3281H85.9058Z" fill="white"/>
<path d="M107.041 44.898L103.217 39.8008L104.691 38.8524L109.149 44.898H107.041ZM99.8784 44.898V34.4269H101.669V44.898H99.8784ZM101.128 40.4725V38.8524H104.393V40.4725H101.128ZM104.84 39.8798L103.18 39.6427L106.967 34.4269H108.888L104.84 39.8798Z" fill="white"/>
<path d="M116.907 44.898V42.6853L116.814 42.2704V38.4968C116.814 37.6934 116.59 37.0743 116.142 36.6397C115.707 36.1919 115.048 35.9679 114.165 35.9679C113.58 35.9679 113.008 36.0733 112.449 36.2841C111.889 36.4816 111.417 36.7516 111.031 37.0941L110.285 35.6716C110.795 35.2369 111.404 34.9077 112.113 34.6837C112.834 34.4467 113.587 34.3281 114.37 34.3281C115.726 34.3281 116.77 34.6772 117.504 35.3752C118.238 36.0733 118.604 37.1402 118.604 38.5758V44.898H116.907ZM113.661 45.0166C112.928 45.0166 112.281 44.8849 111.721 44.6214C111.174 44.358 110.751 43.9958 110.453 43.5348C110.154 43.0606 110.005 42.5272 110.005 41.9345C110.005 41.3681 110.13 40.8545 110.378 40.3935C110.639 39.9325 111.056 39.5637 111.628 39.2871C112.213 39.0105 112.996 38.8722 113.978 38.8722H117.112V40.2354H114.053C113.158 40.2354 112.555 40.3935 112.244 40.7096C111.933 41.0257 111.777 41.4077 111.777 41.8555C111.777 42.3692 111.97 42.7841 112.356 43.1002C112.741 43.4031 113.276 43.5546 113.96 43.5546C114.631 43.5546 115.216 43.3965 115.713 43.0804C116.223 42.7643 116.59 42.3033 116.814 41.6974L117.168 43.0014C116.932 43.6204 116.515 44.1143 115.918 44.4831C115.321 44.8388 114.569 45.0166 113.661 45.0166Z" fill="white"/>
<path fill-rule="evenodd" clip-rule="evenodd" d="M10.9501 6.67146C8.06321 7.64321 5.89876 9.59706 4.48255 12.5094C3.28627 14.969 3.17692 15.508 3.31903 18.2507C3.58483 23.3777 6.20797 27.9835 13.5929 36.2889C16.1001 39.1088 17.4606 40.3538 17.6703 40.0201C18.199 39.1781 18.0975 39.0127 14.8825 35.4797C10.7367 30.9232 8.02102 27.2377 6.43404 24.0132C3.46074 17.9713 4.95148 11.6019 9.96063 8.94495C12.2549 7.7282 15.9519 7.72073 18.2023 8.92795C19.8643 9.81968 22.4653 12.3344 23.2188 13.7784C23.6161 14.5391 23.6517 14.5333 24.126 13.6362C24.565 12.8062 24.4442 12.4924 23.0407 10.8163C19.9257 7.09598 14.8543 5.35729 10.9501 6.67146ZM34.4076 6.58855C31.8226 7.11422 28.5188 9.4872 26.8056 12.0484C24.6109 15.3284 22.8642 21.969 21.9488 30.5107L21.7592 32.2813L26.1237 34.367C28.5245 35.5145 31.5609 36.9407 32.871 37.5368L35.2537 38.6209L37.5808 36.0112C41.1053 32.0591 44.439 27.4218 45.9261 24.4029C47.1314 21.9545 47.2616 21.3318 47.2702 17.9614C47.2784 14.8923 47.1195 13.9264 46.3745 12.5164C43.9513 7.93009 39.253 5.60313 34.4076 6.58855ZM20.9156 35.0755C20.257 36.3316 19.2262 40.2518 19.2262 41.5005C19.2262 44.9368 22.5759 47.8608 26.1172 47.5163C27.1828 47.4126 28.5872 46.9748 29.2375 46.5433C30.3441 45.8095 33.5603 41.2907 33.5603 40.4703C33.5603 40.2659 31.2107 38.9712 28.3386 37.5932C21.2199 34.1771 21.3611 34.2252 20.9156 35.0755Z" fill="white"/>
</svg>
