<svg width="24" height="24" viewBox="0 0 24 24" fill="none" xmlns="http://www.w3.org/2000/svg">
<path d="M18.8787 0H5.12132C3.76306 0 2.46043 0.539566 1.5 1.5C0.539566 2.46043 0 3.75802 0 5.11628V18.8834C0 20.2417 0.539566 21.5396 1.5 22.5C2.46043 23.4604 3.7607 24 5.11896 24H18.881C20.2393 24 21.5396 23.4604 22.5 22.5C23.4604 21.5396 24 20.2369 24 18.8787V5.12132C24 3.76306 23.4604 2.46043 22.5 1.5C21.5396 0.539566 20.2369 0 18.8787 0Z" fill="white"/>
<path d="M12.3653 6.4224C12.8547 6.4224 13.324 6.6027 13.6701 6.92363C14.0161 7.24456 14.2105 7.67984 14.2105 8.13371C14.2105 8.58757 14.0161 9.02285 13.6701 9.34378C13.324 9.66472 12.8547 9.84501 12.3653 9.84501C11.8759 9.84501 11.4065 9.66472 11.0605 9.34378C10.7144 9.02285 10.52 8.58757 10.52 8.13371C10.52 7.67984 10.7144 7.24456 11.0605 6.92363C11.4065 6.6027 11.8759 6.4224 12.3653 6.4224ZM12.3653 12.2596C14.8223 12.2596 16.8142 10.4076 16.8142 8.13371C16.8142 5.85978 14.8172 4.00781 12.3653 4.00781C9.91332 4.00781 7.91637 5.85978 7.91637 8.13371C7.91637 10.4076 9.91332 12.2596 12.3653 12.2596ZM14.165 15.6306C15.078 15.4391 15.9497 15.1062 16.7434 14.6461C16.8881 14.5611 17.0134 14.4505 17.112 14.3207C17.2107 14.1908 17.2808 14.0442 17.3184 13.8892C17.3559 13.7342 17.3602 13.5739 17.3309 13.4173C17.3017 13.2608 17.2394 13.1112 17.1478 12.9769C17.0562 12.8427 16.937 12.7265 16.7969 12.635C16.6569 12.5436 16.4988 12.4785 16.3317 12.4437C16.1646 12.4089 15.9917 12.4049 15.8229 12.4321C15.6541 12.4592 15.4928 12.5169 15.348 12.6019C14.449 13.1229 13.4102 13.3991 12.3501 13.3991C11.29 13.3991 10.2512 13.1229 9.35215 12.6019C9.20742 12.5169 9.04606 12.4592 8.87729 12.4321C8.70851 12.4049 8.53562 12.4089 8.3685 12.4437C8.20137 12.4785 8.04328 12.5436 7.90325 12.635C7.76322 12.7265 7.64399 12.8427 7.55237 12.9769C7.46075 13.1112 7.39853 13.2608 7.36927 13.4173C7.34001 13.5739 7.34428 13.7342 7.38183 13.8892C7.41939 14.0442 7.4895 14.1908 7.58815 14.3207C7.68681 14.4505 7.81208 14.5611 7.95682 14.6461C8.76065 15.1149 9.62515 15.4431 10.5352 15.6306L8.05793 17.9421C7.81323 18.169 7.67576 18.4768 7.67576 18.7977C7.67576 19.1187 7.81323 19.4265 8.05793 19.6534C8.30263 19.8803 8.63451 20.0078 8.98057 20.0078C9.32663 20.0078 9.65851 19.8803 9.90321 19.6534L12.3501 17.3795L14.797 19.6487C14.9181 19.7611 15.0619 19.8503 15.2203 19.9111C15.3786 19.972 15.5483 20.0033 15.7196 20.0033C15.891 20.0033 16.0607 19.972 16.219 19.9111C16.3773 19.8503 16.5211 19.7611 16.6423 19.6487C16.7635 19.5364 16.8596 19.403 16.9253 19.2562C16.9909 19.1093 17.0246 18.952 17.0246 18.793C17.0246 18.6341 16.9909 18.4768 16.9253 18.3299C16.8596 18.1831 16.7635 18.0497 16.6423 17.9374L14.1499 15.626" fill="#626262"/>
</svg>
