<svg width="162" height="42" viewBox="0 0 162 42" fill="none" xmlns="http://www.w3.org/2000/svg">
<path d="M0.344 25.728C0.344 22.8693 0.877333 20.0533 1.944 17.28C3.05333 14.464 4.632 12.1387 6.68 10.304C7.192 7.53066 8.51467 5.29066 10.648 3.584C12.824 1.83467 15.9173 0.959999 19.928 0.959999C23.9387 0.959999 27.1387 2.53867 29.528 5.696C31.96 8.81067 33.176 12.8853 33.176 17.92C33.176 21.2053 32.6853 24.32 31.704 27.264C33.6667 26.5813 35.4373 25.728 37.016 24.704C38.6373 23.6373 39.4693 23.104 39.512 23.104C39.9813 23.104 40.216 23.3813 40.216 23.936C40.216 24.4053 39.192 25.3227 37.144 26.688C35.096 28.0107 32.984 28.9493 30.808 29.504C29.2293 32.96 26.9893 35.6907 24.088 37.696C21.1867 39.6587 17.6667 40.64 13.528 40.64C9.432 40.64 6.21067 39.2747 3.864 36.544C1.51733 33.7707 0.344 30.1653 0.344 25.728ZM27.352 28.032C27.9067 26.112 28.184 23.9787 28.184 21.632C28.184 16.5973 27.224 12.3307 25.304 8.832C23.4267 5.33333 20.7387 3.584 17.24 3.584C15.7467 3.584 14.2533 4.01067 12.76 4.864C11.3093 5.67466 10.264 6.784 9.624 8.192C11.8427 6.95467 14.0827 6.336 16.344 6.336C18.648 6.336 19.8 6.656 19.8 7.296C19.8 7.68 19.6507 7.97867 19.352 8.192C19.0533 8.40533 18.7547 8.512 18.456 8.512C14.7867 8.512 11.672 9.74933 9.112 12.224C9.45333 16.576 11.352 20.3093 14.808 23.424C18.3067 26.496 22.488 28.032 27.352 28.032ZM15.96 37.376C21.08 37.376 24.6427 34.9653 26.648 30.144C21.528 30.144 17.0693 28.8 13.272 26.112C9.51733 23.424 7.29867 19.904 6.616 15.552C5.42133 17.8133 4.824 20.352 4.824 23.168C4.824 27.0507 5.89067 30.4 8.024 33.216C10.2 35.9893 12.8453 37.376 15.96 37.376ZM49.364 17.28C49.9613 12.672 51.348 9.13066 53.524 6.656C55.7427 4.13866 58.644 2.88 62.228 2.88C65.812 2.88 67.604 4.11733 67.604 6.592C67.604 8.256 67.1987 9.792 66.388 11.2C65.62 12.5653 64.5747 13.7173 63.252 14.656C60.6493 16.4053 57.5987 17.664 54.1 18.432C53.2467 25.7707 51.988 31.0187 50.324 34.176C54.2493 35.4987 56.8947 36.352 58.26 36.736C59.6253 37.0773 61.0547 37.248 62.548 37.248C64.084 37.248 65.1293 36.6293 65.684 35.392C66.2387 34.1547 66.644 33.536 66.9 33.536C67.412 33.536 67.668 33.856 67.668 34.496C67.668 36.5013 66.9213 38.208 65.428 39.616C63.9347 41.024 62.3133 41.728 60.564 41.728C58.772 41.728 57.1507 41.4293 55.7 40.832C54.2493 40.2347 53.332 39.8507 52.948 39.68C52.564 39.5093 51.7747 39.1467 50.58 38.592C49.428 38.0373 48.6173 37.6533 48.148 37.44C46.5267 39.1467 44.3507 40 41.62 40C40.5107 40 39.5293 39.5947 38.676 38.784C37.8227 37.9733 37.396 37.0133 37.396 35.904C37.396 33.472 38.7827 32.256 41.556 32.256C42.7507 32.256 44.4147 32.5333 46.548 33.088C47.3587 30.528 48.212 25.8773 49.108 19.136C48.6387 19.1787 47.9987 19.2 47.188 19.2C46.42 19.2 46.036 19.072 46.036 18.816C46.036 18.0053 47.1453 17.4933 49.364 17.28ZM54.292 16.576C57.0227 15.9787 59.2627 14.976 61.012 13.568C62.804 12.1173 63.7 10.24 63.7 7.936C63.7 5.632 62.9107 4.48 61.332 4.48C57.876 4.48 55.5293 8.512 54.292 16.576ZM45.076 36.096C42.6013 35.0293 41.0653 34.496 40.468 34.496C39.9133 34.496 39.636 34.7947 39.636 35.392C39.636 35.9893 39.892 36.5013 40.404 36.928C40.9587 37.3547 41.6627 37.568 42.516 37.568C43.3693 37.568 44.2227 37.0773 45.076 36.096ZM92.719 37.056C93.487 37.056 94.511 36.1813 95.791 34.432C97.071 32.64 98.3297 30.3573 99.567 27.584C100.847 24.768 101.615 23.36 101.871 23.36C102.17 23.36 102.319 23.5307 102.319 23.872C102.319 25.0667 101.7 26.9653 100.463 29.568C97.0923 36.736 94.2337 40.32 91.887 40.32C89.9243 40.32 88.5163 39.9787 87.663 39.296C87.279 38.912 87.087 34.8587 87.087 27.136L76.591 27.904C75.7803 30.1227 75.055 32.3413 74.415 34.56C73.775 36.7787 73.3483 38.144 73.135 38.656C72.6657 39.7653 71.535 40.32 69.743 40.32C68.5483 40.32 67.951 39.808 67.951 38.784C67.951 37.76 68.7617 36.2667 70.383 34.304C70.6817 33.92 71.663 31.8507 73.327 28.096C72.7297 28.1387 72.1537 28.16 71.599 28.16C70.1057 28.16 69.359 27.52 69.359 26.24C69.359 25.088 69.9563 24.512 71.151 24.512C71.2363 24.512 72.4523 24.6187 74.799 24.832C75.439 23.3387 76.1217 21.8667 76.847 20.416C82.4363 8.72533 86.2763 2.88 88.367 2.88C89.9457 2.88 91.0337 10.1973 91.631 24.832H92.207C92.5057 24.832 92.655 25.0453 92.655 25.472C92.655 25.8987 92.335 26.2613 91.695 26.56C91.951 33.5573 92.2923 37.056 92.719 37.056ZM77.551 25.152C82.543 25.152 85.7217 25.1307 87.087 25.088C87.0443 24.4053 87.0017 23.2107 86.959 21.504C86.9163 19.7973 86.8737 18.3253 86.831 17.088C86.7883 15.808 86.7457 14.4853 86.703 13.12C86.5323 10.176 86.2763 8.704 85.935 8.704C85.4657 8.704 84.5057 10.0907 83.055 12.864C81.6043 15.6373 80.4737 17.984 79.663 19.904C78.5537 22.6773 77.8497 24.4267 77.551 25.152ZM113.774 16.384C113.091 20.736 112.131 24.96 110.894 29.056C109.699 33.152 108.376 36.16 106.926 38.08C105.475 40 103.726 40.96 101.678 40.96C100.184 40.96 99.4375 40.384 99.4375 39.232C99.4375 38.2933 99.7575 37.632 100.398 37.248C101.038 36.864 101.784 36.5867 102.638 36.416C103.534 36.2027 104.11 35.968 104.366 35.712C105.944 34.048 107.395 31.0827 108.718 26.816C110.083 22.5067 111.064 18.1333 111.662 13.696C109.827 11.776 108.91 10.2187 108.91 9.024C108.91 7.82933 109.251 6.464 109.934 4.928C110.616 3.34933 111.427 2.56 112.366 2.56C112.92 2.56 113.411 3.24266 113.838 4.608C114.264 5.97333 114.478 7.68 114.478 9.728C116.696 12.544 118.424 14.976 119.662 17.024C120.984 12.672 122.798 9.024 125.102 6.08C127.406 3.09333 130.051 1.6 133.038 1.6C134.104 1.6 134.958 1.984 135.597 2.752C136.238 3.52 136.558 4.37333 136.558 5.312C136.558 6.25066 136.366 7.104 135.982 7.872C135.64 8.59733 135.171 8.96 134.574 8.96C133.976 8.96 133.678 8.66133 133.678 8.064C133.678 7.46667 133.486 7.01867 133.102 6.72C132.76 6.37867 132.312 6.208 131.757 6.208C130.008 6.208 128.366 7.12533 126.83 8.96C124.654 11.5627 122.84 15.2747 121.39 20.096C124.206 26.1547 125.614 31.0613 125.614 34.816C125.614 36.352 125.272 37.7173 124.59 38.912C123.907 40.064 122.904 40.64 121.582 40.64C118.766 40.64 117.358 38.2507 117.358 33.472C117.358 30.1013 117.614 26.9013 118.126 23.872C116.846 21.1413 115.395 18.6453 113.774 16.384ZM119.662 28.096C119.448 29.632 119.342 31.2107 119.342 32.832C119.342 34.4533 119.448 35.712 119.662 36.608C119.875 37.504 120.11 37.952 120.366 37.952C120.878 37.952 121.134 37.0773 121.134 35.328C121.134 33.5787 120.643 31.168 119.662 28.096ZM157.49 29.44C157.789 29.0133 158.215 28.2667 158.77 27.2C160.135 24.768 160.946 23.552 161.202 23.552C161.501 23.552 161.65 23.7227 161.65 24.064C161.65 26.1547 160.562 28.8 158.386 32C154.461 37.76 149.234 40.64 142.706 40.64C140.871 40.64 139.186 40.2133 137.65 39.36C136.114 38.5067 134.898 37.4187 134.002 36.096C132.167 33.408 131.25 30.592 131.25 27.648C131.25 20.224 133.17 14.2507 137.01 9.728C140.893 5.16266 145.479 2.88 150.77 2.88C152.775 2.88 154.418 3.47733 155.698 4.672C156.978 5.824 157.618 7.296 157.618 9.088C157.618 10.88 157.17 12.544 156.274 14.08C155.378 15.616 154.29 16.384 153.01 16.384C151.773 16.384 151.154 16.0427 151.154 15.36C151.154 14.592 151.559 13.7173 152.37 12.736C153.223 11.7547 153.65 10.7733 153.65 9.792C153.65 6.76266 152.029 5.248 148.786 5.248C145.586 5.248 142.685 7.40266 140.082 11.712C137.479 16.0213 136.178 20.4587 136.178 25.024C136.178 28.1813 137.074 30.9973 138.866 33.472C140.658 35.904 143.175 37.12 146.418 37.12C150.258 37.12 153.949 34.56 157.49 29.44Z" fill="#1A1A1A"/>
</svg>
