<svg width="47" height="13" viewBox="0 0 47 13" fill="none" xmlns="http://www.w3.org/2000/svg">
<path d="M0.824 12V0.799999H5.016C5.96533 0.799999 6.78133 0.954666 7.464 1.264C8.14667 1.56267 8.66933 2 9.032 2.576C9.40533 3.14133 9.592 3.82933 9.592 4.64C9.592 5.42933 9.40533 6.112 9.032 6.688C8.66933 7.25333 8.14667 7.69067 7.464 8C6.78133 8.30933 5.96533 8.464 5.016 8.464H1.48L2.008 7.904V12H0.824ZM2.008 8L1.48 7.424H4.984C6.104 7.424 6.952 7.184 7.528 6.704C8.11467 6.21333 8.408 5.52533 8.408 4.64C8.408 3.744 8.11467 3.05067 7.528 2.56C6.952 2.06933 6.104 1.824 4.984 1.824H1.48L2.008 1.264V8ZM9.79763 12L14.9176 0.799999H16.0856L21.2056 12H19.9576L15.2536 1.488H15.7336L11.0296 12H9.79763ZM11.8136 9.008L12.1656 8.048H18.6776L19.0296 9.008H11.8136ZM23.0584 12V0.799999H27.2504C28.1997 0.799999 29.0157 0.954666 29.6984 1.264C30.381 1.56267 30.9037 2 31.2664 2.576C31.6397 3.14133 31.8264 3.82933 31.8264 4.64C31.8264 5.42933 31.6397 6.112 31.2664 6.688C30.9037 7.25333 30.381 7.69067 29.6984 8C29.0157 8.29867 28.1997 8.448 27.2504 8.448H23.7144L24.2424 7.904V12H23.0584ZM30.7064 12L27.8264 7.936H29.1064L32.0024 12H30.7064ZM24.2424 8L23.7144 7.44H27.2184C28.3384 7.44 29.1864 7.19467 29.7624 6.704C30.349 6.21333 30.6424 5.52533 30.6424 4.64C30.6424 3.744 30.349 3.05067 29.7624 2.56C29.1864 2.06933 28.3384 1.824 27.2184 1.824H23.7144L24.2424 1.264V8ZM34.6209 12V0.799999H35.8049V12H34.6209ZM42.537 12.096C41.705 12.096 40.905 11.9627 40.137 11.696C39.3797 11.4187 38.793 11.0667 38.377 10.64L38.841 9.728C39.2357 10.112 39.7637 10.4373 40.425 10.704C41.097 10.96 41.801 11.088 42.537 11.088C43.241 11.088 43.8117 11.0027 44.249 10.832C44.697 10.6507 45.0223 10.4107 45.225 10.112C45.4383 9.81333 45.545 9.48267 45.545 9.12C45.545 8.68267 45.417 8.33067 45.161 8.064C44.9157 7.79733 44.5903 7.58933 44.185 7.44C43.7797 7.28 43.3317 7.14133 42.841 7.024C42.3503 6.90667 41.8597 6.784 41.369 6.656C40.8783 6.51733 40.425 6.336 40.009 6.112C39.6037 5.888 39.273 5.59467 39.017 5.232C38.7717 4.85867 38.649 4.37333 38.649 3.776C38.649 3.22133 38.793 2.71467 39.081 2.256C39.3797 1.78667 39.833 1.41333 40.441 1.136C41.049 0.848 41.8277 0.704 42.777 0.704C43.4063 0.704 44.0303 0.794666 44.649 0.976C45.2677 1.14667 45.801 1.38667 46.249 1.696L45.849 2.64C45.369 2.32 44.857 2.08533 44.313 1.936C43.7797 1.78667 43.2623 1.712 42.761 1.712C42.089 1.712 41.5343 1.80267 41.097 1.984C40.6597 2.16533 40.3343 2.41067 40.121 2.72C39.9183 3.01867 39.817 3.36 39.817 3.744C39.817 4.18133 39.9397 4.53333 40.185 4.8C40.441 5.06667 40.7717 5.27467 41.177 5.424C41.593 5.57333 42.0463 5.70667 42.537 5.824C43.0277 5.94133 43.513 6.06933 43.993 6.208C44.4837 6.34667 44.9317 6.528 45.337 6.752C45.753 6.96533 46.0837 7.25333 46.329 7.616C46.585 7.97867 46.713 8.45333 46.713 9.04C46.713 9.584 46.5637 10.0907 46.265 10.56C45.9663 11.0187 45.5077 11.392 44.889 11.68C44.281 11.9573 43.497 12.096 42.537 12.096Z" fill="#1A1A1A"/>
</svg>
