<svg width="82" height="82" viewBox="0 0 82 82" fill="none" xmlns="http://www.w3.org/2000/svg">
<rect x="0.5" y="0.5" width="81" height="81" rx="19.5" fill="#476B59"/>
<g clip-path="url(#clip0_1493_26637)">
<path d="M61.8383 41.7926L61.8383 62.1437C61.8383 62.5534 62.2439 62.6675 61.7373 62.6675H19.6785C19.1718 62.6675 19.0314 62.5534 19.0314 62.1437V51.9993V41.7926C19.0314 41.7926 19.1414 41.051 19.648 41.051H22.3993V28.442C22.3993 28.0323 22.8101 27.7004 23.3168 27.7004H27.9026C28.1768 27.7004 28.4362 27.7993 28.6106 27.9702L31.7207 31.0232L39.8993 19.4786C40.1511 19.1234 40.7109 19.0001 41.15 19.2035L45.1303 21.0463C45.3674 21.1568 45.5318 21.3475 45.5777 21.5657L47.2551 29.5228C47.4618 30.1858 50.7796 33.157 57.5761 38.1137C58.6012 38.8484 58.9352 40.029 58.4071 41.051H61.8383C62.3449 41.051 61.8383 41.3829 61.8383 41.7926ZM60.4119 61.8184V50.096H20.2942V61.8184H60.4119ZM27.4696 29.1837H24.2339V41.051H26.0681V33.634C26.0674 33.2977 26.3462 33.003 26.748 32.9162C27.1499 32.8292 27.5733 32.9716 27.7807 33.2629L33.3138 41.051H48.329C48.7169 41.0817 49.104 40.9845 49.4022 40.7817C49.7007 40.5789 49.8855 40.2876 49.9149 39.973V39.942C49.911 39.8277 49.8794 39.7148 49.823 39.6098C49.6318 39.272 49.2525 39.0289 48.8026 38.9555C48.1227 38.8371 47.0452 38.6441 45.7754 38.4062C34.9302 36.3684 33.9686 35.5235 33.5771 35.1753L27.4696 29.1837ZM31.1979 41.051L27.9026 36.4131V41.051H31.1979ZM34.9582 34.2007C35.0335 34.2637 35.7059 34.7198 39.9904 35.6921C39.8612 35.5636 39.7902 35.4037 39.7873 35.2383L39.7762 28.6068L36.4687 33.2751C36.2172 33.63 35.6575 33.7527 35.2179 33.5493L33.4756 32.7409L34.9582 34.2007ZM55.8592 41.024C56.2187 40.9662 56.5273 40.7817 56.702 40.5214C56.9715 40.0714 56.8255 39.5305 56.349 39.2122C51.6163 35.7606 45.8866 31.334 45.4586 29.8095L43.8421 22.1596L41.0345 20.8588L33.7407 31.1567L35.3317 31.8937L39.891 25.4581C40.098 25.1668 40.5218 25.0243 40.9236 25.1113C41.3251 25.1981 41.6043 25.4929 41.6036 25.8292L41.619 34.8095L46.3215 36.9879L46.8123 37.079L47.1406 37.14L47.7018 37.2421L47.9318 37.2845L48.4201 37.3721L48.6329 37.4098L49.193 37.5093C49.3609 37.5398 49.5252 37.5804 49.6856 37.6312C49.738 37.6474 49.7864 37.6686 49.8378 37.6872C49.9415 37.7235 50.0426 37.7635 50.1406 37.8082C50.1976 37.8349 50.2507 37.8648 50.3046 37.8929C50.39 37.9388 50.4736 37.9855 50.5532 38.0365C50.6056 38.0699 50.6551 38.1056 50.7053 38.1413C50.7789 38.1953 50.8485 38.251 50.9163 38.3099C50.9615 38.3487 51.0082 38.3882 51.0466 38.4297C51.1112 38.4927 51.1689 38.5588 51.2249 38.6256C51.2593 38.6679 51.2959 38.7085 51.3282 38.7524C51.3831 38.829 51.4323 38.9085 51.4761 38.99C51.4979 39.0283 51.5234 39.0637 51.5428 39.104C51.6016 39.2241 51.6479 39.3483 51.6827 39.4748L54.6486 40.8484C54.9245 40.9807 55.2385 41.0527 55.5592 41.0573H55.565C55.6633 41.0556 55.7616 41.0454 55.8574 41.0269L55.8592 41.024ZM60.4119 42.2389H20.2942V49.2095H60.4119V42.2389Z" fill="white"/>
<path d="M40.0385 58.3138C40.4626 58.4839 40.9606 58.4839 41.3847 58.3138L42.1361 58.0098L42.9556 59.3366L42.2046 59.6407C41.2642 60.0185 40.159 60.0185 39.2183 59.6407L38.4673 59.3366L39.2868 58.0098L40.0385 58.3138Z" fill="white"/>
<path d="M44.3806 53.9919C44.3806 54.4013 44.7911 54.7336 45.2977 54.7336C45.8044 54.7336 46.2148 54.4013 46.2148 53.9919C46.2148 53.5822 45.8044 53.25 45.2977 53.25C44.7911 53.25 44.3806 53.5822 44.3806 53.9919Z" fill="white"/>
<path d="M35.2084 53.9919C35.2084 54.4013 35.6192 54.7336 36.1259 54.7336C36.6321 54.7336 37.043 54.4013 37.043 53.9919C37.043 53.5822 36.6321 53.25 36.1259 53.25C35.6192 53.25 35.2084 53.5822 35.2084 53.9919Z" fill="white"/>
</g>
<rect x="0.5" y="0.5" width="81" height="81" rx="19.5" stroke="white"/>
<defs>
<clipPath id="clip0_1493_26637">
<rect width="44" height="44" fill="white" transform="matrix(-1 0 0 1 63 19)"/>
</clipPath>
</defs>
</svg>
