<svg width="32" height="21" viewBox="0 0 32 21" fill="none" xmlns="http://www.w3.org/2000/svg">
<path d="M19.7264 21C19.4055 21 19.0846 20.8922 18.8312 20.6612C18.3414 20.2147 18.3414 19.4755 18.8312 19.029L28.1886 10.4981L18.8312 1.96719C18.3414 1.52063 18.3414 0.781486 18.8312 0.334923C19.3211 -0.111641 20.1318 -0.111641 20.6216 0.334923L30.8742 9.68193C31.3641 10.1285 31.3641 10.8676 30.8742 11.3142L20.6216 20.6612C20.3683 20.8922 20.0474 21 19.7264 21Z" fill="#FFFCFC"/>
<path d="M29.6937 11.6526H1.2668C0.574281 11.6526 0 11.129 0 10.4977C0 9.86633 0.574281 9.34277 1.2668 9.34277H29.6937C30.3862 9.34277 30.9605 9.86633 30.9605 10.4977C30.9605 11.129 30.3862 11.6526 29.6937 11.6526Z" fill="#FFFCFC"/>
</svg>
