<svg width="24" height="24" viewBox="0 0 24 24" fill="none" xmlns="http://www.w3.org/2000/svg">
<path fill-rule="evenodd" clip-rule="evenodd" d="M8.31615 0H15.6839C22.4079 0 24 1.59209 24 8.31615V15.6839C24 22.4079 22.4079 24 15.6839 24H8.31615C1.59209 24 0 22.4079 0 15.6839V8.31615C0 1.59209 1.59209 0 8.31615 0Z" fill="white"/>
<path d="M18.3726 6.06307L5.02602 10.9568C4.89014 11.0066 4.7998 11.136 4.7998 11.2807C4.7998 11.4245 4.889 11.5532 5.02365 11.6037L8.16825 12.7829C8.46487 12.8942 8.79666 12.8583 9.06263 12.6862L16.4775 7.88834C16.6164 7.79841 16.7998 7.89817 16.7998 8.0637C16.7998 8.12467 16.7732 8.1826 16.7269 8.22228L10.429 13.6204C10.2074 13.8104 10.0798 14.0878 10.0798 14.3797V17.7598C10.3776 17.7598 10.6536 17.6035 10.8068 17.3482L11.9998 15.3598L15.7296 17.6909C15.8016 17.7359 15.8848 17.7598 15.9697 17.7598C16.1759 17.7598 16.3561 17.6206 16.4082 17.421L19.1799 6.79615C19.1931 6.74544 19.1998 6.69324 19.1998 6.64082C19.1998 6.21309 18.7742 5.91582 18.3726 6.06307Z" fill="#626262"/>
</svg>
