<svg width="21" height="20" viewBox="0 0 21 20" fill="none" xmlns="http://www.w3.org/2000/svg">
<path d="M20.5436 18.9119L15.38 13.8308C16.7322 12.3616 17.563 10.4187 17.563 8.28068C17.5623 3.7071 13.7952 0 9.14787 0C4.50053 0 0.733398 3.7071 0.733398 8.28068C0.733398 12.8543 4.50053 16.5614 9.14787 16.5614C11.1558 16.5614 12.9975 15.8668 14.4441 14.7122L19.6278 19.8134C19.8804 20.0622 20.2905 20.0622 20.543 19.8134C20.7962 19.5646 20.7962 19.1607 20.5436 18.9119ZM9.14787 15.2873C5.21571 15.2873 2.02808 12.1504 2.02808 8.28068C2.02808 4.41101 5.21571 1.27403 9.14787 1.27403C13.0801 1.27403 16.2677 4.41101 16.2677 8.28068C16.2677 12.1504 13.0801 15.2873 9.14787 15.2873Z" fill="#989898"/>
</svg>
