<?xml version="1.0" encoding="utf-8"?>
<svg viewBox="61.769 282.063 161.807 46.765" xmlns="http://www.w3.org/2000/svg">
  <path d="M9.2 30V5.2H0.6V2.72H20.76V5.2H12.16V30H9.2ZM25.3672 30V11.28H28.0872V30H25.3672ZM26.7272 7.64C26.1139 7.64 25.5939 7.42667 25.1672 7C24.7672 6.57333 24.5672 6.05333 24.5672 5.44C24.5672 4.85333 24.7672 4.36 25.1672 3.96C25.5939 3.53333 26.1139 3.32 26.7272 3.32C27.3139 3.32 27.8205 3.53333 28.2472 3.96C28.6739 4.36 28.8872 4.86667 28.8872 5.48C28.8872 6.06667 28.6739 6.57333 28.2472 7C27.8205 7.42667 27.3139 7.64 26.7272 7.64ZM43.5103 10.64C44.817 10.64 46.017 10.9067 47.1103 11.44C48.2303 11.9733 49.1103 12.76 49.7503 13.8C50.417 14.84 50.7503 16.0667 50.7503 17.48V30H48.0303V18.68C48.0303 14.9733 46.377 13.12 43.0703 13.12C41.1503 13.12 39.7103 13.8 38.7503 15.16C37.7903 16.52 37.3103 18.3467 37.3103 20.64V30H34.5903V11.28H37.3103V14.4C37.9503 13.2 38.7903 12.28 39.8303 11.64C40.897 10.9733 42.1236 10.64 43.5103 10.64ZM73.4747 0.96V30H70.7547V27.24C69.9814 28.3067 69.0347 29.1467 67.9147 29.76C66.7947 30.3467 65.568 30.64 64.2347 30.64C62.448 30.64 60.848 30.2133 59.4347 29.36C58.0214 28.5067 56.9147 27.32 56.1147 25.8C55.3147 24.28 54.9147 22.5467 54.9147 20.6C54.9147 18.68 55.3014 16.9733 56.0747 15.48C56.8747 13.96 57.968 12.7733 59.3547 11.92C60.768 11.0667 62.368 10.64 64.1547 10.64C65.5147 10.64 66.7547 10.9467 67.8747 11.56C69.0214 12.1467 69.9814 12.9867 70.7547 14.08V0.96H73.4747ZM64.1547 28.16C65.4347 28.16 66.568 27.84 67.5547 27.2C68.568 26.56 69.3547 25.6667 69.9147 24.52C70.4747 23.3733 70.7547 22.08 70.7547 20.64C70.7547 19.2 70.4747 17.9067 69.9147 16.76C69.3547 15.6133 68.568 14.72 67.5547 14.08C66.568 13.44 65.4347 13.12 64.1547 13.12C62.9014 13.12 61.7814 13.44 60.7947 14.08C59.808 14.72 59.0347 15.6133 58.4747 16.76C57.9147 17.88 57.6347 19.16 57.6347 20.6C57.6347 22.0667 57.9147 23.3733 58.4747 24.52C59.0347 25.6667 59.808 26.56 60.7947 27.2C61.7814 27.84 62.9014 28.16 64.1547 28.16ZM95.8966 11.28V30H93.1766V27.24C92.4032 28.3067 91.4566 29.1467 90.3366 29.76C89.2166 30.3467 87.9899 30.64 86.6566 30.64C84.8699 30.64 83.2699 30.2133 81.8566 29.36C80.4432 28.5067 79.3366 27.32 78.5366 25.8C77.7366 24.28 77.3366 22.5467 77.3366 20.6C77.3366 18.68 77.7232 16.9733 78.4966 15.48C79.2966 13.96 80.3899 12.7733 81.7766 11.92C83.1899 11.0667 84.7899 10.64 86.5766 10.64C87.9366 10.64 89.1766 10.9467 90.2966 11.56C91.4432 12.1467 92.4032 12.9867 93.1766 14.08V11.28H95.8966ZM86.5766 28.16C87.8566 28.16 88.9899 27.84 89.9766 27.2C90.9899 26.56 91.7766 25.6667 92.3366 24.52C92.8966 23.3733 93.1766 22.08 93.1766 20.64C93.1766 19.2 92.8966 17.9067 92.3366 16.76C91.7766 15.6133 90.9899 14.72 89.9766 14.08C88.9899 13.44 87.8566 13.12 86.5766 13.12C85.3232 13.12 84.2032 13.44 83.2166 14.08C82.2299 14.72 81.4566 15.6133 80.8966 16.76C80.3366 17.88 80.0566 19.16 80.0566 20.6C80.0566 22.0667 80.3366 23.3733 80.8966 24.52C81.4566 25.6667 82.2299 26.56 83.2166 27.2C84.2032 27.84 85.3232 28.16 86.5766 28.16ZM109.838 10.64C111.145 10.64 112.345 10.9067 113.438 11.44C114.558 11.9733 115.438 12.76 116.078 13.8C116.745 14.84 117.078 16.0667 117.078 17.48V30H114.358V18.68C114.358 14.9733 112.705 13.12 109.398 13.12C107.478 13.12 106.038 13.8 105.078 15.16C104.118 16.52 103.638 18.3467 103.638 20.64V30H100.918V11.28H103.638V14.4C104.278 13.2 105.118 12.28 106.158 11.64C107.225 10.9733 108.452 10.64 109.838 10.64ZM139.803 11.28V29.28C139.803 30.96 139.456 32.4533 138.763 33.76C138.069 35.0933 137.096 36.1333 135.843 36.88C134.589 37.6267 133.163 38 131.563 38H123.803V35.52H131.563C133.189 35.52 134.509 34.9333 135.523 33.76C136.563 32.5867 137.083 31.0933 137.083 29.28V27.24C136.309 28.3067 135.363 29.1467 134.243 29.76C133.123 30.3467 131.896 30.64 130.563 30.64C128.776 30.64 127.176 30.2133 125.763 29.36C124.349 28.5067 123.243 27.32 122.443 25.8C121.643 24.28 121.243 22.5467 121.243 20.6C121.243 18.68 121.629 16.9733 122.403 15.48C123.203 13.96 124.296 12.7733 125.683 11.92C127.096 11.0667 128.696 10.64 130.483 10.64C131.843 10.64 133.083 10.9467 134.203 11.56C135.349 12.1467 136.309 12.9867 137.083 14.08V11.28H139.803ZM130.483 28.16C131.763 28.16 132.896 27.84 133.883 27.2C134.896 26.56 135.683 25.6667 136.243 24.52C136.803 23.3733 137.083 22.08 137.083 20.64C137.083 19.2 136.803 17.9067 136.243 16.76C135.683 15.6133 134.896 14.72 133.883 14.08C132.896 13.44 131.763 13.12 130.483 13.12C129.229 13.12 128.109 13.44 127.123 14.08C126.136 14.72 125.363 15.6133 124.803 16.76C124.243 17.88 123.963 19.16 123.963 20.6C123.963 22.0667 124.243 23.3733 124.803 24.52C125.363 25.6667 126.136 26.56 127.123 27.2C128.109 27.84 129.229 28.16 130.483 28.16ZM152.905 10.64C154.585 10.64 156.105 11.0533 157.465 11.88C158.825 12.7067 159.891 13.84 160.665 15.28C161.438 16.6933 161.825 18.28 161.825 20.04C161.825 20.5467 161.811 20.9333 161.785 21.2H146.385C146.491 23.12 147.118 24.76 148.265 26.12C149.411 27.48 150.971 28.16 152.945 28.16C154.545 28.16 155.865 27.8667 156.905 27.28C157.971 26.6667 158.825 25.8267 159.465 24.76L161.625 26.2C160.745 27.5867 159.585 28.68 158.145 29.48C156.705 30.2533 154.998 30.64 153.025 30.64C151.211 30.64 149.598 30.2133 148.185 29.36C146.771 28.5067 145.665 27.32 144.865 25.8C144.065 24.28 143.665 22.56 143.665 20.64C143.665 18.72 144.051 17 144.825 15.48C145.625 13.96 146.718 12.7733 148.105 11.92C149.518 11.0667 151.118 10.64 152.905 10.64ZM159.105 18.96C158.838 17.0133 158.185 15.56 157.145 14.6C156.105 13.6133 154.691 13.12 152.905 13.12C151.171 13.12 149.745 13.68 148.625 14.8C147.531 15.8933 146.838 17.28 146.545 18.96H159.105Z" fill="#1A1A1A" transform="matrix(1, 0, 0, 1, 61.270024, 279.616734)"/>
  <path d="M 124.34 328.722 L 124.34 320.74 L 127.379 320.74 C 128.067 320.74 128.659 320.85 129.153 321.071 C 129.648 321.283 130.027 321.595 130.29 322.006 C 130.561 322.408 130.696 322.899 130.696 323.477 C 130.696 324.039 130.561 324.526 130.29 324.936 C 130.027 325.339 129.648 325.65 129.153 325.871 C 128.659 326.091 128.067 326.202 127.379 326.202 L 124.816 326.202 L 125.198 325.803 L 125.198 328.722 L 124.34 328.722 Z M 125.198 325.871 L 124.816 325.461 L 127.356 325.461 C 128.167 325.461 128.782 325.29 129.2 324.948 C 129.625 324.598 129.837 324.107 129.837 323.477 C 129.837 322.838 129.625 322.344 129.2 321.994 C 128.782 321.644 128.167 321.47 127.356 321.47 L 124.816 321.47 L 125.198 321.071 L 125.198 325.871 Z M 130.845 328.722 L 134.556 320.74 L 135.403 320.74 L 139.114 328.722 L 138.209 328.722 L 134.8 321.23 L 135.148 321.23 L 131.738 328.722 L 130.845 328.722 Z M 132.306 326.59 L 132.561 325.905 L 137.282 325.905 L 137.537 326.59 L 132.306 326.59 Z M 140.457 328.722 L 140.457 320.74 L 143.496 320.74 C 144.184 320.74 144.775 320.85 145.27 321.071 C 145.765 321.283 146.144 321.595 146.407 322.006 C 146.677 322.408 146.813 322.899 146.813 323.477 C 146.813 324.039 146.677 324.526 146.407 324.936 C 146.144 325.339 145.765 325.65 145.27 325.871 C 144.775 326.084 144.184 326.19 143.496 326.19 L 140.933 326.19 L 141.315 325.803 L 141.315 328.722 L 140.457 328.722 Z M 146.001 328.722 L 143.913 325.826 L 144.841 325.826 L 146.94 328.722 L 146.001 328.722 Z M 141.315 325.871 L 140.933 325.472 L 143.473 325.472 C 144.284 325.472 144.899 325.297 145.317 324.948 C 145.741 324.598 145.954 324.107 145.954 323.477 C 145.954 322.838 145.741 322.344 145.317 321.994 C 144.899 321.644 144.284 321.47 143.473 321.47 L 140.933 321.47 L 141.315 321.071 L 141.315 325.871 Z M 148.838 328.722 L 148.838 320.74 L 149.696 320.74 L 149.696 328.722 L 148.838 328.722 Z M 154.576 328.79 C 153.973 328.79 153.393 328.695 152.836 328.505 C 152.287 328.307 151.862 328.056 151.56 327.753 L 151.897 327.103 C 152.183 327.376 152.566 327.608 153.045 327.798 C 153.532 327.981 154.042 328.072 154.576 328.072 C 155.086 328.072 155.5 328.011 155.817 327.889 C 156.141 327.76 156.378 327.589 156.524 327.376 C 156.679 327.163 156.756 326.927 156.756 326.669 C 156.756 326.357 156.663 326.106 156.478 325.917 C 156.3 325.727 156.065 325.578 155.77 325.472 C 155.477 325.358 155.152 325.259 154.796 325.176 C 154.441 325.092 154.085 325.005 153.729 324.913 C 153.374 324.814 153.045 324.685 152.743 324.526 C 152.45 324.366 152.21 324.157 152.024 323.899 C 151.847 323.632 151.758 323.286 151.758 322.861 C 151.758 322.465 151.862 322.104 152.071 321.778 C 152.287 321.443 152.616 321.177 153.057 320.98 C 153.497 320.774 154.062 320.672 154.75 320.672 C 155.206 320.672 155.659 320.736 156.107 320.866 C 156.555 320.987 156.942 321.158 157.266 321.379 L 156.976 322.051 C 156.629 321.823 156.257 321.656 155.863 321.55 C 155.477 321.443 155.102 321.39 154.738 321.39 C 154.251 321.39 153.849 321.454 153.532 321.584 C 153.215 321.713 152.98 321.888 152.825 322.108 C 152.678 322.321 152.604 322.565 152.604 322.838 C 152.604 323.15 152.693 323.4 152.871 323.591 C 153.057 323.78 153.296 323.929 153.59 324.035 C 153.892 324.142 154.221 324.236 154.576 324.32 C 154.932 324.404 155.283 324.495 155.631 324.594 C 155.987 324.692 156.312 324.822 156.605 324.982 C 156.907 325.134 157.147 325.339 157.324 325.598 C 157.51 325.856 157.603 326.194 157.603 326.612 C 157.603 327 157.495 327.361 157.278 327.696 C 157.062 328.022 156.729 328.288 156.281 328.494 C 155.84 328.691 155.272 328.79 154.576 328.79 Z" fill="#1A1A1A" style=""/>
</svg>