<svg width="24" height="24" viewBox="0 0 24 24" fill="none" xmlns="http://www.w3.org/2000/svg">
<path fill-rule="evenodd" clip-rule="evenodd" d="M8.31615 0H15.6839C22.4079 0 24 1.59209 24 8.31615V15.6839C24 22.4079 22.4079 24 15.6839 24H8.31615C1.59209 24 0 22.4079 0 15.6839V8.31615C0 1.59209 1.59209 0 8.31615 0Z" fill="white"/>
<path fill-rule="evenodd" clip-rule="evenodd" d="M19.6235 7.69395C19.7421 7.30251 19.6235 7.01781 19.0982 7.01781H17.3528C16.9123 7.01781 16.7089 7.2669 16.5903 7.53384C16.5903 7.53384 15.6922 9.81141 14.4382 11.2882C14.0315 11.7153 13.8452 11.8576 13.6249 11.8576C13.5062 11.8576 13.3538 11.7153 13.3538 11.3239V7.67614C13.3538 7.21353 13.2182 7 12.8454 7H10.1003C9.82915 7 9.65973 7.21353 9.65973 7.42705C9.65973 7.87192 10.2867 7.97865 10.3545 9.2242V11.9288C10.3545 12.516 10.2528 12.6228 10.0325 12.6228C9.43942 12.6228 7.99909 10.3274 7.13488 7.71176C6.9654 7.19572 6.79597 7 6.35541 7H4.59308C4.08473 7 4 7.24914 4 7.51604C4 7.99646 4.59308 10.4164 6.76206 13.6192C8.20244 15.8078 10.2528 16.9822 12.0998 16.9822C13.2182 16.9822 13.3538 16.7153 13.3538 16.2705V14.6157C13.3538 14.0819 13.4554 13.9929 13.8113 13.9929C14.0655 13.9929 14.523 14.1352 15.5566 15.185C16.7428 16.4306 16.9461 17 17.607 17H19.3524C19.8607 17 20.098 16.7331 19.9624 16.2171C19.8099 15.7011 19.2338 14.9538 18.4881 14.064C18.0815 13.5659 17.4714 13.0143 17.285 12.7473C17.0309 12.3915 17.0986 12.2491 17.285 11.9288C17.2681 11.9288 19.4032 8.76159 19.6235 7.69395Z" fill="#626262"/>
</svg>
