<svg width="191" height="65" viewBox="0 0 191 65" fill="none" xmlns="http://www.w3.org/2000/svg">
<path d="M76.8246 35.498C75.5028 35.498 74.2802 35.2802 73.1567 34.8444C72.0497 34.3919 71.0831 33.7634 70.257 32.9589C69.4474 32.1377 68.8113 31.1824 68.3487 30.093C67.8861 29.0036 67.6548 27.8053 67.6548 26.498C67.6548 25.1908 67.8861 23.9925 68.3487 22.9031C68.8113 21.8137 69.4557 20.8668 70.2818 20.0623C71.1079 19.2411 72.0745 18.6126 73.1815 18.1768C74.305 17.7243 75.5276 17.498 76.8494 17.498C78.1877 17.498 79.4186 17.7327 80.5421 18.202C81.6821 18.6545 82.6487 19.3332 83.4417 20.2383L81.8308 21.8221C81.1699 21.1182 80.4264 20.5986 79.6003 20.2634C78.7742 19.9115 77.8903 19.7355 76.9485 19.7355C75.9737 19.7355 75.065 19.9031 74.2224 20.2383C73.3962 20.5735 72.6775 21.0427 72.0662 21.6461C71.4549 22.2494 70.9757 22.9701 70.6288 23.8081C70.2983 24.6293 70.1331 25.526 70.1331 26.498C70.1331 27.4701 70.2983 28.3751 70.6288 29.2131C70.9757 30.0344 71.4549 30.7467 72.0662 31.35C72.6775 31.9534 73.3962 32.4226 74.2224 32.7578C75.065 33.093 75.9737 33.2606 76.9485 33.2606C77.8903 33.2606 78.7742 33.093 79.6003 32.7578C80.4264 32.4059 81.1699 31.8696 81.8308 31.1489L83.4417 32.7327C82.6487 33.6377 81.6821 34.3249 80.5421 34.7941C79.4186 35.2634 78.1794 35.498 76.8246 35.498Z" fill="#313030"/>
<path d="M88.6989 35.2969V23.4561L89.2937 24.0846H83.8909V21.9729H95.886V24.0846H90.5081L91.0781 23.4561V35.2969H88.6989Z" fill="#313030"/>
<path d="M98.3189 35.2969V21.9729H100.698V31.6768L108.753 21.9729H110.909V35.2969H108.53V25.593L100.5 35.2969H98.3189Z" fill="#313030"/>
<path d="M113.346 35.2718L113.495 33.2355C113.61 33.2522 113.718 33.269 113.817 33.2858C113.916 33.3025 114.007 33.3109 114.089 33.3109C114.618 33.3109 115.031 33.1265 115.328 32.7578C115.642 32.3891 115.874 31.9031 116.022 31.2997C116.171 30.6796 116.279 29.9841 116.345 29.2131C116.411 28.4422 116.46 27.6712 116.493 26.9003L116.716 21.9729H126.803V35.2969H124.424V23.3807L124.994 24.0846H118.253L118.798 23.3556L118.625 27.0511C118.575 28.2243 118.484 29.3221 118.352 30.3444C118.22 31.3668 118.013 32.2634 117.732 33.0344C117.468 33.8053 117.096 34.4087 116.617 34.8444C116.155 35.2802 115.552 35.498 114.808 35.498C114.593 35.498 114.362 35.4729 114.114 35.4226C113.883 35.3891 113.627 35.3388 113.346 35.2718Z" fill="#313030"/>
<path d="M137.475 26.498C139.144 26.5148 140.416 26.9003 141.292 27.6545C142.168 28.4087 142.606 29.4729 142.606 30.8472C142.606 32.2885 142.126 33.4031 141.168 34.1908C140.21 34.9617 138.855 35.3388 137.104 35.3221L131.404 35.2969V21.9729H133.783V26.4729L137.475 26.498ZM136.905 33.4869C137.979 33.5036 138.789 33.2858 139.334 32.8332C139.896 32.3807 140.177 31.7103 140.177 30.8221C140.177 29.9506 139.904 29.3137 139.359 28.9115C138.814 28.5092 137.996 28.2997 136.905 28.283L133.783 28.2327V33.4617L136.905 33.4869Z" fill="#313030"/>
<path d="M145.659 35.2969V21.9729H148.038V27.6293H155.523V21.9729H157.902V35.2969H155.523V29.7159H148.038V35.2969H145.659Z" fill="#313030"/>
<path d="M170.582 35.2969V32.4813L170.458 31.9534V27.1517C170.458 26.1293 170.161 25.3416 169.566 24.7885C168.988 24.2187 168.112 23.9338 166.939 23.9338C166.163 23.9338 165.403 24.0679 164.659 24.336C163.916 24.5874 163.288 24.931 162.776 25.3668L161.784 23.5567C162.462 23.0036 163.271 22.5846 164.213 22.2997C165.171 21.998 166.171 21.8472 167.212 21.8472C169.013 21.8472 170.401 22.2913 171.375 23.1796C172.35 24.0679 172.838 25.4254 172.838 27.2522V35.2969H170.582ZM166.27 35.4478C165.295 35.4478 164.436 35.2802 163.693 34.945C162.966 34.6098 162.404 34.1489 162.007 33.5623C161.611 32.9589 161.413 32.2802 161.413 31.526C161.413 30.8053 161.578 30.1517 161.908 29.5651C162.255 28.9785 162.809 28.5092 163.569 28.1573C164.345 27.8053 165.386 27.6293 166.691 27.6293H170.855V29.364H166.791C165.601 29.364 164.8 29.5651 164.387 29.9673C163.974 30.3696 163.767 30.8556 163.767 31.4254C163.767 32.0791 164.023 32.607 164.535 33.0092C165.047 33.3947 165.758 33.5874 166.667 33.5874C167.559 33.5874 168.335 33.3863 168.996 32.9841C169.674 32.5818 170.161 31.9953 170.458 31.2243L170.929 32.8835C170.615 33.6712 170.062 34.2997 169.269 34.769C168.476 35.2215 167.476 35.4478 166.27 35.4478Z" fill="#313030"/>
<path d="M185.523 35.2969V30.621L185.895 31.0735H181.707C179.955 31.0735 178.584 30.6964 177.593 29.9422C176.618 29.188 176.131 28.0902 176.131 26.6489C176.131 25.107 176.651 23.9422 177.692 23.1545C178.749 22.3668 180.154 21.9729 181.905 21.9729H187.655V35.2969H185.523ZM176.007 35.2969L179.575 30.1936H182.029L178.559 35.2969H176.007ZM185.523 29.8668V23.4059L185.895 24.0846H181.979C180.889 24.0846 180.046 24.2941 179.452 24.7131C178.857 25.1154 178.559 25.7858 178.559 26.7243C178.559 28.4673 179.666 29.3388 181.88 29.3388H185.895L185.523 29.8668Z" fill="#313030"/>
<path d="M55.1836 59.3554V45.6624H67.4351V59.3554H65.0397V47.2125L65.6136 47.8326H57.0051L57.579 47.2125V59.3554H55.1836Z" fill="#313030"/>
<path d="M77.7342 59.5104C76.4034 59.5104 75.2224 59.209 74.191 58.6062C73.1597 58.0033 72.3446 57.1766 71.7457 56.1259C71.1469 55.058 70.8475 53.8524 70.8475 52.5089C70.8475 51.1482 71.1469 49.9425 71.7457 48.8919C72.3446 47.8412 73.1597 47.0231 74.191 46.4375C75.2224 45.8346 76.4034 45.5332 77.7342 45.5332C79.0484 45.5332 80.2211 45.8346 81.2525 46.4375C82.3005 47.0231 83.1156 47.8412 83.6978 48.8919C84.2966 49.9253 84.596 51.131 84.596 52.5089C84.596 53.8696 84.2966 55.0752 83.6978 56.1259C83.1156 57.1766 82.3005 58.0033 81.2525 58.6062C80.2211 59.209 79.0484 59.5104 77.7342 59.5104ZM77.7342 57.3402C78.5826 57.3402 79.3395 57.1421 80.0049 56.746C80.6869 56.3498 81.2192 55.79 81.6018 55.0666C81.9844 54.326 82.1757 53.4734 82.1757 52.5089C82.1757 51.5271 81.9844 50.6832 81.6018 49.977C81.2192 49.2536 80.6869 48.6938 80.0049 48.2976C79.3395 47.9015 78.5826 47.7034 77.7342 47.7034C76.8859 47.7034 76.129 47.9015 75.4636 48.2976C74.7982 48.6938 74.2659 49.2536 73.8667 49.977C73.4674 50.6832 73.2678 51.5271 73.2678 52.5089C73.2678 53.4734 73.4674 54.326 73.8667 55.0666C74.2659 55.79 74.7982 56.3498 75.4636 56.746C76.129 57.1421 76.8859 57.3402 77.7342 57.3402Z" fill="#313030"/>
<path d="M85.5204 59.3554L91.2095 51.708L91.1846 52.9739L85.77 45.6624H88.4398L92.5819 51.2946H91.5588L95.7009 45.6624H98.3209L92.8314 53.0256L92.8563 51.708L98.5953 59.3554H95.8755L91.5089 53.3615L92.4821 53.5165L88.1903 59.3554H85.5204Z" fill="#313030"/>
<path d="M106.341 59.5104C105.011 59.5104 103.83 59.209 102.798 58.6062C101.767 58.0033 100.952 57.1766 100.353 56.1259C99.754 55.058 99.4546 53.8524 99.4546 52.5089C99.4546 51.1482 99.754 49.9425 100.353 48.8919C100.952 47.8412 101.767 47.0231 102.798 46.4375C103.83 45.8346 105.011 45.5332 106.341 45.5332C107.656 45.5332 108.828 45.8346 109.86 46.4375C110.908 47.0231 111.723 47.8412 112.305 48.8919C112.904 49.9253 113.203 51.131 113.203 52.5089C113.203 53.8696 112.904 55.0752 112.305 56.1259C111.723 57.1766 110.908 58.0033 109.86 58.6062C108.828 59.209 107.656 59.5104 106.341 59.5104ZM106.341 57.3402C107.19 57.3402 107.947 57.1421 108.612 56.746C109.294 56.3498 109.826 55.79 110.209 55.0666C110.592 54.326 110.783 53.4734 110.783 52.5089C110.783 51.5271 110.592 50.6832 110.209 49.977C109.826 49.2536 109.294 48.6938 108.612 48.2976C107.947 47.9015 107.19 47.7034 106.341 47.7034C105.493 47.7034 104.736 47.9015 104.071 48.2976C103.405 48.6938 102.873 49.2536 102.474 49.977C102.075 50.6832 101.875 51.5271 101.875 52.5089C101.875 53.4734 102.075 54.326 102.474 55.0666C102.873 55.79 103.405 56.3498 104.071 56.746C104.736 57.1421 105.493 57.3402 106.341 57.3402Z" fill="#313030"/>
<path d="M125.597 58.1928V47.8326H119.858L119.734 50.4679C119.7 51.329 119.642 52.1644 119.559 52.9739C119.492 53.7662 119.376 54.4982 119.21 55.17C119.06 55.8417 118.835 56.3929 118.536 56.8235C118.236 57.2541 117.837 57.521 117.338 57.6244L114.968 57.1852C115.483 57.2024 115.899 57.0302 116.215 56.6685C116.531 56.2895 116.773 55.7728 116.939 55.1183C117.122 54.4638 117.255 53.7232 117.338 52.8964C117.421 52.0525 117.488 51.1826 117.538 50.287L117.737 45.6624H127.993V58.1928H125.597ZM114.444 62.5332V57.1852H130.014V62.5332H127.768V59.3554H116.714V62.5332H114.444Z" fill="#313030"/>
<path d="M142.716 59.3554L137.601 52.6897L139.572 51.4496L145.536 59.3554H142.716ZM133.134 59.3554V45.6624H135.53V59.3554H133.134ZM134.806 53.5682V51.4496H139.173V53.5682H134.806ZM139.772 52.7931L137.551 52.4831L142.616 45.6624H145.186L139.772 52.7931Z" fill="#313030"/>
<path d="M155.913 59.3554V56.4618L155.788 55.9192V50.9846C155.788 49.9339 155.489 49.1244 154.89 48.556C154.308 47.9704 153.426 47.6776 152.245 47.6776C151.463 47.6776 150.698 47.8154 149.949 48.091C149.201 48.3493 148.569 48.7024 148.053 49.1502L147.055 47.29C147.737 46.7217 148.552 46.2911 149.5 45.9982C150.465 45.6882 151.471 45.5332 152.519 45.5332C154.333 45.5332 155.73 45.9896 156.711 46.9025C157.693 47.8154 158.184 49.2105 158.184 51.0879V59.3554H155.913ZM151.571 59.5104C150.59 59.5104 149.725 59.3382 148.976 58.9937C148.244 58.6492 147.679 58.1756 147.28 57.5727C146.88 56.9527 146.681 56.2551 146.681 55.48C146.681 54.7394 146.847 54.0677 147.18 53.4648C147.529 52.862 148.086 52.3797 148.852 52.018C149.633 51.6563 150.681 51.4755 151.995 51.4755H156.187V53.2581H152.095C150.898 53.2581 150.091 53.4648 149.675 53.8782C149.259 54.2916 149.051 54.7911 149.051 55.3767C149.051 56.0484 149.309 56.591 149.825 57.0043C150.34 57.4005 151.056 57.5986 151.971 57.5986C152.869 57.5986 153.651 57.3919 154.316 56.9785C154.998 56.5651 155.489 55.9623 155.788 55.17L156.262 56.8751C155.946 57.6847 155.389 58.3306 154.59 58.8128C153.792 59.2779 152.786 59.5104 151.571 59.5104Z" fill="#313030"/>
<path fill-rule="evenodd" clip-rule="evenodd" d="M14.5198 8.67689C10.6925 9.94721 7.82287 12.5014 5.94529 16.3085C4.35928 19.5239 4.2143 20.2284 4.40271 23.8139C4.7551 30.5161 8.23281 36.5371 18.0236 47.3944C21.3477 51.0807 23.1514 52.7081 23.4294 52.2719C24.1304 51.1712 23.9957 50.9549 19.7334 46.3365C14.237 40.38 10.6365 35.5621 8.53253 31.3469C4.59058 23.4486 6.56698 15.1222 13.208 11.6489C16.2497 10.0583 21.1511 10.0485 24.1347 11.6267C26.3381 12.7924 29.7865 16.0798 30.7855 17.9674C31.3122 18.9619 31.3595 18.9543 31.9882 17.7815C32.5703 16.6966 32.4101 16.2863 30.5494 14.0952C26.4195 9.23184 19.696 6.95893 14.5198 8.67689ZM45.6194 8.5685C42.1922 9.25569 37.8121 12.3578 35.5409 15.7059C32.6311 19.9937 30.3153 28.6746 29.1018 39.8408L28.8504 42.1554L34.6368 44.8819C37.8197 46.382 41.8453 48.2463 43.5822 49.0256L46.7412 50.4428L49.8264 47.0313C54.4991 41.8649 58.9189 35.8028 60.8904 31.8563C62.4884 28.6556 63.3269 28.2199 63.3383 23.8139C63.3491 19.8019 62.4726 18.1609 61.485 16.3177C58.2722 10.3222 52.0433 7.28031 45.6194 8.5685ZM27.7319 45.8081C26.8588 47.4502 25.4921 52.5748 25.4921 54.2071C25.4921 58.6993 29.9331 62.5216 34.6281 62.0713C36.0409 61.9358 37.9028 61.3635 38.765 60.7993C40.2321 59.8401 44.496 53.9329 44.496 52.8604C44.496 52.5932 41.381 50.9007 37.5732 49.0993C28.1353 44.6337 28.3226 44.6966 27.7319 45.8081Z" fill="#313030"/>
</svg>
