<?xml version="1.0" encoding="utf-8"?>
<svg viewBox="93.542 149.702 140.212 25.524" xmlns="http://www.w3.org/2000/svg">
  <path d="M 99.545 150.625 L 100.569 150.625 C 102.254 150.625 103.492 151.019 104.281 151.809 C 105.07 152.577 105.465 153.718 105.465 155.233 C 105.465 156.107 105.209 156.95 104.697 157.761 C 104.185 158.55 103.566 159.083 102.841 159.361 C 104.676 159.66 106.094 160.428 107.097 161.665 C 108.1 162.902 108.601 164.524 108.601 166.529 C 108.601 168.129 108.249 169.548 107.545 170.785 C 106.841 172.001 105.87 172.95 104.633 173.633 C 103.417 174.294 102.062 174.625 100.569 174.625 L 99.545 174.625 L 99.545 150.625 Z M 100.825 159.073 C 101.849 159.073 102.713 158.699 103.417 157.953 C 104.121 157.206 104.473 156.289 104.473 155.201 C 104.473 153.985 104.174 153.067 103.577 152.449 C 103.001 151.83 102.084 151.521 100.825 151.521 L 100.569 151.521 L 100.569 159.073 L 100.825 159.073 Z M 100.825 173.729 C 102.084 173.729 103.225 173.43 104.249 172.833 C 105.273 172.214 106.084 171.361 106.681 170.273 C 107.278 169.185 107.577 167.958 107.577 166.593 C 107.577 164.396 106.99 162.742 105.817 161.633 C 104.665 160.502 103.001 159.937 100.825 159.937 L 100.569 159.937 L 100.569 173.729 L 100.825 173.729 Z M 124.22 175.265 C 121.98 175.265 119.9 174.678 117.98 173.505 C 116.06 172.332 114.534 170.774 113.404 168.833 C 112.294 166.87 111.74 164.769 111.74 162.529 C 111.74 160.31 112.305 158.241 113.436 156.321 C 114.566 154.379 116.092 152.843 118.012 151.713 C 119.932 150.561 122.012 149.985 124.252 149.985 C 126.513 149.985 128.593 150.55 130.492 151.681 C 132.39 152.811 133.894 154.347 135.004 156.289 C 136.134 158.209 136.7 160.289 136.7 162.529 C 136.7 164.833 136.134 166.966 135.004 168.929 C 133.894 170.87 132.38 172.417 130.46 173.569 C 128.561 174.7 126.481 175.265 124.22 175.265 Z M 124.22 174.337 C 126.268 174.337 128.166 173.814 129.916 172.769 C 131.665 171.702 133.052 170.273 134.076 168.481 C 135.121 166.668 135.644 164.705 135.644 162.593 C 135.644 160.502 135.132 158.561 134.108 156.769 C 133.084 154.977 131.697 153.558 129.948 152.513 C 128.198 151.446 126.3 150.913 124.252 150.913 C 122.182 150.913 120.273 151.446 118.524 152.513 C 116.774 153.558 115.377 154.977 114.332 156.769 C 113.308 158.561 112.796 160.502 112.796 162.593 C 112.796 164.705 113.308 166.668 114.332 168.481 C 115.377 170.273 116.774 171.702 118.524 172.769 C 120.273 173.814 122.172 174.337 124.22 174.337 Z M 154.805 174.625 L 142.101 161.281 L 142.101 174.625 L 141.045 174.625 L 141.045 150.625 L 142.101 150.625 L 142.101 159.329 L 152.117 150.625 L 153.621 150.625 L 142.389 160.225 L 156.213 174.625 L 154.805 174.625 Z M 181.978 174.625 L 180.858 174.625 L 176.314 165.473 L 163.578 165.473 L 159.13 174.625 L 158.01 174.625 L 169.978 150.049 L 181.978 174.625 Z M 175.93 164.545 L 169.914 152.353 L 164.026 164.545 L 175.93 164.545 Z M 185.545 150.625 L 186.569 150.625 C 190.388 150.625 193.332 151.67 195.401 153.761 C 197.492 155.83 198.537 158.785 198.537 162.625 C 198.537 164.822 198.004 166.838 196.937 168.673 C 195.87 170.508 194.42 171.958 192.585 173.025 C 190.772 174.092 188.766 174.625 186.569 174.625 L 185.545 174.625 L 185.545 150.625 Z M 186.825 173.633 C 188.788 173.633 190.58 173.153 192.201 172.193 C 193.822 171.212 195.102 169.878 196.041 168.193 C 197.001 166.508 197.481 164.652 197.481 162.625 C 197.481 159.083 196.553 156.363 194.697 154.465 C 192.862 152.545 190.238 151.585 186.825 151.585 L 186.569 151.585 L 186.569 173.633 L 186.825 173.633 Z M 214.032 150.913 C 211.92 150.913 209.99 151.457 208.24 152.545 C 206.512 153.611 205.136 155.051 204.112 156.865 C 203.11 158.657 202.608 160.588 202.608 162.657 C 202.608 164.748 203.12 166.689 204.144 168.481 C 205.168 170.273 206.523 171.702 208.208 172.769 C 209.915 173.814 211.75 174.337 213.712 174.337 C 214.864 174.337 215.888 174.23 216.784 174.017 C 217.702 173.804 218.576 173.462 219.408 172.993 L 219.408 165.473 L 211.472 165.473 L 211.472 164.545 L 220.464 164.545 L 220.464 172.321 L 220.528 172.289 L 220.528 173.473 C 219.504 174.092 218.448 174.54 217.36 174.817 C 216.294 175.116 215.12 175.265 213.84 175.265 C 211.6 175.265 209.542 174.721 207.664 173.633 C 205.787 172.524 204.294 171.009 203.184 169.089 C 202.096 167.148 201.552 164.972 201.552 162.561 C 201.552 160.236 202.118 158.113 203.248 156.193 C 204.4 154.273 205.926 152.758 207.824 151.649 C 209.744 150.539 211.782 149.985 213.936 149.985 C 215.43 149.985 216.614 150.123 217.488 150.401 C 218.363 150.657 219.376 151.115 220.528 151.777 L 220.528 152.961 C 219.44 152.214 218.427 151.691 217.488 151.393 C 216.571 151.073 215.419 150.913 214.032 150.913 Z M 224.858 150.625 L 233.466 150.625 L 233.466 151.553 L 225.914 151.553 L 225.914 164.609 L 232.218 164.609 L 232.218 165.537 L 225.914 165.537 L 225.914 173.697 L 233.466 173.697 L 233.466 174.625 L 224.858 174.625 L 224.858 150.625 Z" fill="#1A1A1A"/>
  <line x1="0.5" y1="15" x2="0.5" stroke="#1A1A1A" transform="matrix(1, 0, 0, 1, 93.614213, 154.779848)"/>
</svg>