<svg width="169" height="27" viewBox="0 0 169 27" fill="none" xmlns="http://www.w3.org/2000/svg">
<path d="M11.528 26.576C9.488 26.576 7.664 26.036 6.056 24.956C4.472 23.852 3.224 22.328 2.312 20.384C1.424 18.44 0.98 16.232 0.98 13.76C0.98 11.288 1.424 9.08 2.312 7.136C3.224 5.168 4.472 3.644 6.056 2.564C7.664 1.46 9.488 0.907999 11.528 0.907999C13.568 0.907999 15.38 1.46 16.964 2.564C18.572 3.644 19.82 5.168 20.708 7.136C21.62 9.08 22.076 11.3 22.076 13.796C22.076 16.268 21.62 18.476 20.708 20.42C19.82 22.34 18.572 23.852 16.964 24.956C15.38 26.036 13.568 26.576 11.528 26.576ZM11.528 24.092C13.016 24.092 14.348 23.66 15.524 22.796C16.724 21.908 17.66 20.684 18.332 19.124C19.004 17.54 19.34 15.752 19.34 13.76C19.34 11.768 19.004 9.98 18.332 8.396C17.66 6.812 16.724 5.576 15.524 4.688C14.348 3.8 13.016 3.356 11.528 3.356C10.04 3.356 8.696 3.8 7.496 4.688C6.32 5.576 5.396 6.812 4.724 8.396C4.052 9.98 3.716 11.768 3.716 13.76C3.716 15.752 4.052 17.54 4.724 19.124C5.396 20.684 6.32 21.908 7.496 22.796C8.696 23.66 10.04 24.092 11.528 24.092ZM26.9104 26V1.448H40.3024V3.716H29.6104V12.284H37.5304V14.48H29.6104V26H26.9104ZM43.1526 26V1.448H56.5446V3.716H45.8526V12.284H53.7726V14.48H45.8526V26H43.1526ZM58.6028 18.152V16.136H66.7748V18.152H58.6028ZM83.5452 12.788C84.9612 13.148 86.0532 13.844 86.8212 14.876C87.5892 15.908 87.9732 17.264 87.9732 18.944C87.9732 21.128 87.3132 22.856 85.9932 24.128C84.6732 25.376 82.8612 26 80.5572 26H71.6292V1.448H79.7292C81.9132 1.448 83.6292 2.024 84.8772 3.176C86.1252 4.304 86.7492 5.816 86.7492 7.712C86.7492 8.936 86.4732 9.992 85.9212 10.88C85.3692 11.744 84.5772 12.38 83.5452 12.788ZM74.3292 11.924H80.0532C82.6212 11.924 83.9052 10.52 83.9052 7.712C83.9052 6.44 83.5332 5.456 82.7892 4.76C82.0452 4.064 81.0132 3.716 79.6932 3.716H74.3292V11.924ZM80.1972 23.768C81.7332 23.768 82.9332 23.336 83.7972 22.472C84.6852 21.608 85.1292 20.432 85.1292 18.944C85.1292 17.456 84.6852 16.292 83.7972 15.452C82.9332 14.588 81.7332 14.156 80.1972 14.156H74.3292V23.768H80.1972ZM92.301 26V1.448H95.001V23.768H106.053V26H92.301ZM124.686 26L122.166 19.124H111.978L109.71 26H107.01L115.722 1.448H118.242L127.206 26H124.686ZM112.806 16.892H121.338L116.946 4.976L112.806 16.892ZM138.922 26.576C136.858 26.576 135.07 26.072 133.558 25.064C132.07 24.032 130.918 22.568 130.102 20.672C129.31 18.752 128.914 16.46 128.914 13.796C128.914 11.108 129.298 8.804 130.066 6.884C130.858 4.94 131.974 3.464 133.414 2.456C134.878 1.424 136.606 0.907999 138.598 0.907999C140.638 0.907999 142.378 1.364 143.818 2.276C145.282 3.164 146.422 4.424 147.238 6.056L145.078 7.316C144.31 5.9 143.41 4.892 142.378 4.292C141.346 3.668 140.086 3.356 138.598 3.356C136.462 3.356 134.782 4.28 133.558 6.128C132.358 7.952 131.758 10.496 131.758 13.76C131.758 15.896 132.034 17.744 132.586 19.304C133.138 20.864 133.93 22.064 134.962 22.904C135.994 23.72 137.194 24.128 138.562 24.128C140.266 24.128 141.586 23.756 142.522 23.012C143.482 22.244 144.37 21.056 145.186 19.448L147.454 20.816C146.59 22.688 145.438 24.116 143.998 25.1C142.582 26.084 140.89 26.576 138.922 26.576ZM165.29 26L156.866 14.192L154.274 17.252V26H151.574V1.448H154.274V13.868L164.642 1.448H167.63L158.45 12.32L168.35 26H165.29Z" fill="#1A1A1A"/>
</svg>
