<svg width="82" height="82" viewBox="0 0 82 82" fill="none" xmlns="http://www.w3.org/2000/svg">
<rect x="0.5" y="0.5" width="81" height="81" rx="19.5" fill="#476B59"/>
<g clip-path="url(#clip0_1493_26641)">
<path d="M62.5 35.6922V32.7302C62.4981 32.6344 62.4751 32.5401 62.4328 32.4541L55.707 19.8107C55.6568 19.7167 55.582 19.6381 55.4906 19.5834C55.3992 19.5287 55.2946 19.4998 55.188 19.5H26.812C26.7053 19.4999 26.6007 19.5289 26.5092 19.5838C26.4178 19.6388 26.343 19.7175 26.293 19.8118L19.5689 32.4541C19.5265 32.5401 19.5036 32.6344 19.5017 32.7302V35.6922C19.5035 36.6268 19.8675 37.5243 20.5171 38.1962C21.1667 38.8681 22.0514 39.2621 22.9854 39.2955V57.7969H20.0879C19.9321 57.7968 19.7827 57.8586 19.6724 57.9686C19.5622 58.0787 19.5002 58.228 19.5 58.3838V61.9111C19.4999 61.9884 19.515 62.0649 19.5445 62.1364C19.5739 62.2078 19.6172 62.2728 19.6718 62.3275C19.7264 62.3822 19.7913 62.4255 19.8627 62.4552C19.9341 62.4848 20.0106 62.5 20.0879 62.5H61.9121C62.068 62.5 62.2176 62.4381 62.3278 62.3278C62.4381 62.2176 62.5 62.068 62.5 61.9121V58.3848C62.5 58.3075 62.4849 58.2311 62.4553 58.1597C62.4258 58.0884 62.3825 58.0236 62.3279 57.969C62.2733 57.9144 62.2085 57.8711 62.1371 57.8415C62.0658 57.812 61.9893 57.7968 61.9121 57.7969H59.0146V39.2955C59.9489 39.2625 60.8341 38.8687 61.484 38.1967C62.134 37.5248 62.4981 36.627 62.5 35.6922ZM61.3242 35.6922C61.3235 36.3379 61.0667 36.957 60.6101 37.4136C60.1535 37.8702 59.5344 38.127 58.8887 38.1277H57.9648C57.3191 38.127 56.7 37.8702 56.2434 37.4136C55.7868 36.957 55.53 36.3379 55.5293 35.6922V33.3181H61.3242V35.6922ZM54.3535 35.6922C54.3528 36.3379 54.096 36.957 53.6394 37.4136C53.1828 37.8702 52.5637 38.127 51.918 38.1277H50.9941C50.3484 38.127 49.7293 37.8702 49.2727 37.4136C48.8161 36.957 48.5593 36.3379 48.5586 35.6922V33.3181H54.3535V35.6922ZM47.3828 35.6922C47.3821 36.3379 47.1253 36.957 46.6687 37.4136C46.2121 37.8702 45.593 38.127 44.9473 38.1277H44.0234C43.3777 38.127 42.7586 37.8702 42.302 37.4136C41.8454 36.957 41.5886 36.3379 41.5879 35.6922V33.3181H47.3828V35.6922ZM40.4121 35.6922C40.411 36.3376 40.1539 36.9563 39.6974 37.4125C39.2408 37.8687 38.622 38.1253 37.9766 38.1261H37.0527C36.4073 38.1253 35.7885 37.8687 35.3319 37.4125C34.8754 36.9563 34.6183 36.3376 34.6172 35.6922V33.3181H40.4121V35.6922ZM33.4414 35.6922C33.4407 36.3379 33.1839 36.957 32.7273 37.4136C32.2707 37.8702 31.6516 38.127 31.0059 38.1277H30.082C29.4363 38.127 28.8172 37.8702 28.3606 37.4136C27.904 36.957 27.6472 36.3379 27.6465 35.6922V33.3181H33.4414V35.6922ZM27.1651 20.6758H54.8349L60.9335 32.1433H21.0665L27.1651 20.6758ZM20.6758 35.6922V33.3181H26.4707V35.6922C26.47 36.3379 26.2132 36.957 25.7566 37.4136C25.3 37.8702 24.6809 38.127 24.0352 38.1277H23.1113C22.4656 38.127 21.8465 37.8702 21.3899 37.4136C20.9333 36.957 20.6765 36.3379 20.6758 35.6922ZM61.3242 61.3242H20.6758V58.9727H61.3242V61.3242ZM36.4665 57.7969H28.8659V43.7792H36.4665V57.7969ZM37.6423 57.7969V43.1913C37.6423 43.0354 37.5804 42.8859 37.4701 42.7756C37.3599 42.6654 37.2103 42.6034 37.0544 42.6034H28.278C28.1221 42.6034 27.9726 42.6654 27.8623 42.7756C27.7521 42.8859 27.6902 43.0354 27.6902 43.1913V57.7969H24.1628V39.2955C24.7416 39.2754 25.3071 39.1163 25.8115 38.8315C26.3158 38.5468 26.7441 38.1447 27.0603 37.6594C27.3877 38.1632 27.8357 38.5773 28.3637 38.8641C28.8917 39.1509 29.4829 39.3014 30.0837 39.3018H31.0075C31.6084 39.3014 32.1996 39.1509 32.7276 38.8641C33.2555 38.5773 33.7035 38.1632 34.031 37.6594C34.3584 38.1632 34.8064 38.5773 35.3344 38.8641C35.8624 39.1509 36.4536 39.3014 37.0544 39.3018H37.9766C38.5774 39.3014 39.1686 39.1509 39.6966 38.8641C40.2246 38.5773 40.6726 38.1632 41 37.6594C41.3274 38.1632 41.7754 38.5773 42.3034 38.8641C42.8314 39.1509 43.4226 39.3014 44.0234 39.3018H44.9473C45.5481 39.3014 46.1393 39.1509 46.6673 38.8641C47.1953 38.5773 47.6433 38.1632 47.9707 37.6594C48.2981 38.1632 48.7462 38.5773 49.2741 38.8641C49.8021 39.1509 50.3933 39.3014 50.9941 39.3018H51.918C52.5188 39.3014 53.11 39.1509 53.638 38.8641C54.166 38.5773 54.614 38.1632 54.9414 37.6594C55.2575 38.1447 55.6859 38.5468 56.1902 38.8315C56.6945 39.1163 57.26 39.2754 57.8389 39.2955V57.7969H37.6423Z" fill="white"/>
</g>
<rect x="0.5" y="0.5" width="81" height="81" rx="19.5" stroke="white"/>
<defs>
<clipPath id="clip0_1493_26641">
<rect width="43" height="43" fill="white" transform="translate(19.5 19.5)"/>
</clipPath>
</defs>
</svg>
