<svg width="42" height="42" viewBox="0 0 42 42" fill="none" xmlns="http://www.w3.org/2000/svg">
<rect width="42" height="42" rx="6" fill="#476B59"/>
<path d="M13 7.66699L9 13.0003V31.667C9 32.3742 9.28095 33.0525 9.78105 33.5526C10.2811 34.0527 10.9594 34.3337 11.6667 34.3337H30.3333C31.0406 34.3337 31.7189 34.0527 32.219 33.5526C32.719 33.0525 33 32.3742 33 31.667V13.0003L29 7.66699H13Z" stroke="white" stroke-width="2" stroke-linecap="round" stroke-linejoin="round"/>
<path d="M9 13H33" stroke="white" stroke-width="2" stroke-linecap="round" stroke-linejoin="round"/>
<path d="M26.3332 18.333C26.3332 19.7475 25.7713 21.1041 24.7711 22.1042C23.7709 23.1044 22.4143 23.6663 20.9998 23.6663C19.5853 23.6663 18.2288 23.1044 17.2286 22.1042C16.2284 21.1041 15.6665 19.7475 15.6665 18.333" stroke="white" stroke-width="2" stroke-linecap="round" stroke-linejoin="round"/>
</svg>
