<svg width="42" height="42" viewBox="0 0 42 42" fill="none" xmlns="http://www.w3.org/2000/svg">
<rect width="42" height="42" rx="6" fill="#476B59"/>
<path d="M27 17.5333L15 10.6133" stroke="white" stroke-width="2" stroke-linecap="round" stroke-linejoin="round"/>
<path d="M33 26.3329V15.6662C32.9995 15.1986 32.8761 14.7393 32.6421 14.3344C32.408 13.9296 32.0717 13.5934 31.6667 13.3595L22.3333 8.02621C21.9279 7.79216 21.4681 7.66895 21 7.66895C20.5319 7.66895 20.0721 7.79216 19.6667 8.02621L10.3333 13.3595C9.92835 13.5934 9.59197 13.9296 9.35795 14.3344C9.12392 14.7393 9.00048 15.1986 9 15.6662V26.3329C9.00048 26.8005 9.12392 27.2598 9.35795 27.6647C9.59197 28.0695 9.92835 28.4057 10.3333 28.6395L19.6667 33.9729C20.0721 34.2069 20.5319 34.3301 21 34.3301C21.4681 34.3301 21.9279 34.2069 22.3333 33.9729L31.6667 28.6395C32.0717 28.4057 32.408 28.0695 32.6421 27.6647C32.8761 27.2598 32.9995 26.8005 33 26.3329Z" stroke="white" stroke-width="2" stroke-linecap="round" stroke-linejoin="round"/>
<path d="M9.35986 14.2803L20.9999 21.0136L32.6399 14.2803" stroke="white" stroke-width="2" stroke-linecap="round" stroke-linejoin="round"/>
<path d="M21 34.44V21" stroke="white" stroke-width="2" stroke-linecap="round" stroke-linejoin="round"/>
</svg>
