<svg width="42" height="42" viewBox="0 0 42 42" fill="none" xmlns="http://www.w3.org/2000/svg">
<rect width="42" height="42" rx="6" fill="#476B59"/>
<path d="M26.3335 9H6.3335V26.3333H26.3335V9Z" stroke="white" stroke-width="2" stroke-linecap="round" stroke-linejoin="round"/>
<path d="M26.3335 15.667H31.6668L35.6668 19.667V26.3337H26.3335V15.667Z" stroke="white" stroke-width="2" stroke-linecap="round" stroke-linejoin="round"/>
<path d="M12.3333 32.9997C14.1743 32.9997 15.6667 31.5073 15.6667 29.6663C15.6667 27.8254 14.1743 26.333 12.3333 26.333C10.4924 26.333 9 27.8254 9 29.6663C9 31.5073 10.4924 32.9997 12.3333 32.9997Z" stroke="white" stroke-width="2" stroke-linecap="round" stroke-linejoin="round"/>
<path d="M29.6668 32.9997C31.5078 32.9997 33.0002 31.5073 33.0002 29.6663C33.0002 27.8254 31.5078 26.333 29.6668 26.333C27.8259 26.333 26.3335 27.8254 26.3335 29.6663C26.3335 31.5073 27.8259 32.9997 29.6668 32.9997Z" stroke="white" stroke-width="2" stroke-linecap="round" stroke-linejoin="round"/>
</svg>
