<svg width="162" height="38" viewBox="0 0 162 38" fill="none" xmlns="http://www.w3.org/2000/svg">
<path d="M9.2 30V5.2H0.6V2.72H20.76V5.2H12.16V30H9.2ZM25.3672 30V11.28H28.0872V30H25.3672ZM26.7272 7.64C26.1139 7.64 25.5939 7.42667 25.1672 7C24.7672 6.57333 24.5672 6.05333 24.5672 5.44C24.5672 4.85333 24.7672 4.36 25.1672 3.96C25.5939 3.53333 26.1139 3.32 26.7272 3.32C27.3139 3.32 27.8205 3.53333 28.2472 3.96C28.6739 4.36 28.8872 4.86667 28.8872 5.48C28.8872 6.06667 28.6739 6.57333 28.2472 7C27.8205 7.42667 27.3139 7.64 26.7272 7.64ZM43.5103 10.64C44.817 10.64 46.017 10.9067 47.1103 11.44C48.2303 11.9733 49.1103 12.76 49.7503 13.8C50.417 14.84 50.7503 16.0667 50.7503 17.48V30H48.0303V18.68C48.0303 14.9733 46.377 13.12 43.0703 13.12C41.1503 13.12 39.7103 13.8 38.7503 15.16C37.7903 16.52 37.3103 18.3467 37.3103 20.64V30H34.5903V11.28H37.3103V14.4C37.9503 13.2 38.7903 12.28 39.8303 11.64C40.897 10.9733 42.1236 10.64 43.5103 10.64ZM73.4747 0.96V30H70.7547V27.24C69.9814 28.3067 69.0347 29.1467 67.9147 29.76C66.7947 30.3467 65.568 30.64 64.2347 30.64C62.448 30.64 60.848 30.2133 59.4347 29.36C58.0214 28.5067 56.9147 27.32 56.1147 25.8C55.3147 24.28 54.9147 22.5467 54.9147 20.6C54.9147 18.68 55.3014 16.9733 56.0747 15.48C56.8747 13.96 57.968 12.7733 59.3547 11.92C60.768 11.0667 62.368 10.64 64.1547 10.64C65.5147 10.64 66.7547 10.9467 67.8747 11.56C69.0214 12.1467 69.9814 12.9867 70.7547 14.08V0.96H73.4747ZM64.1547 28.16C65.4347 28.16 66.568 27.84 67.5547 27.2C68.568 26.56 69.3547 25.6667 69.9147 24.52C70.4747 23.3733 70.7547 22.08 70.7547 20.64C70.7547 19.2 70.4747 17.9067 69.9147 16.76C69.3547 15.6133 68.568 14.72 67.5547 14.08C66.568 13.44 65.4347 13.12 64.1547 13.12C62.9014 13.12 61.7814 13.44 60.7947 14.08C59.808 14.72 59.0347 15.6133 58.4747 16.76C57.9147 17.88 57.6347 19.16 57.6347 20.6C57.6347 22.0667 57.9147 23.3733 58.4747 24.52C59.0347 25.6667 59.808 26.56 60.7947 27.2C61.7814 27.84 62.9014 28.16 64.1547 28.16ZM95.8966 11.28V30H93.1766V27.24C92.4032 28.3067 91.4566 29.1467 90.3366 29.76C89.2166 30.3467 87.9899 30.64 86.6566 30.64C84.8699 30.64 83.2699 30.2133 81.8566 29.36C80.4432 28.5067 79.3366 27.32 78.5366 25.8C77.7366 24.28 77.3366 22.5467 77.3366 20.6C77.3366 18.68 77.7232 16.9733 78.4966 15.48C79.2966 13.96 80.3899 12.7733 81.7766 11.92C83.1899 11.0667 84.7899 10.64 86.5766 10.64C87.9366 10.64 89.1766 10.9467 90.2966 11.56C91.4432 12.1467 92.4032 12.9867 93.1766 14.08V11.28H95.8966ZM86.5766 28.16C87.8566 28.16 88.9899 27.84 89.9766 27.2C90.9899 26.56 91.7766 25.6667 92.3366 24.52C92.8966 23.3733 93.1766 22.08 93.1766 20.64C93.1766 19.2 92.8966 17.9067 92.3366 16.76C91.7766 15.6133 90.9899 14.72 89.9766 14.08C88.9899 13.44 87.8566 13.12 86.5766 13.12C85.3232 13.12 84.2032 13.44 83.2166 14.08C82.2299 14.72 81.4566 15.6133 80.8966 16.76C80.3366 17.88 80.0566 19.16 80.0566 20.6C80.0566 22.0667 80.3366 23.3733 80.8966 24.52C81.4566 25.6667 82.2299 26.56 83.2166 27.2C84.2032 27.84 85.3232 28.16 86.5766 28.16ZM109.838 10.64C111.145 10.64 112.345 10.9067 113.438 11.44C114.558 11.9733 115.438 12.76 116.078 13.8C116.745 14.84 117.078 16.0667 117.078 17.48V30H114.358V18.68C114.358 14.9733 112.705 13.12 109.398 13.12C107.478 13.12 106.038 13.8 105.078 15.16C104.118 16.52 103.638 18.3467 103.638 20.64V30H100.918V11.28H103.638V14.4C104.278 13.2 105.118 12.28 106.158 11.64C107.225 10.9733 108.452 10.64 109.838 10.64ZM139.803 11.28V29.28C139.803 30.96 139.456 32.4533 138.763 33.76C138.069 35.0933 137.096 36.1333 135.843 36.88C134.589 37.6267 133.163 38 131.563 38H123.803V35.52H131.563C133.189 35.52 134.509 34.9333 135.523 33.76C136.563 32.5867 137.083 31.0933 137.083 29.28V27.24C136.309 28.3067 135.363 29.1467 134.243 29.76C133.123 30.3467 131.896 30.64 130.563 30.64C128.776 30.64 127.176 30.2133 125.763 29.36C124.349 28.5067 123.243 27.32 122.443 25.8C121.643 24.28 121.243 22.5467 121.243 20.6C121.243 18.68 121.629 16.9733 122.403 15.48C123.203 13.96 124.296 12.7733 125.683 11.92C127.096 11.0667 128.696 10.64 130.483 10.64C131.843 10.64 133.083 10.9467 134.203 11.56C135.349 12.1467 136.309 12.9867 137.083 14.08V11.28H139.803ZM130.483 28.16C131.763 28.16 132.896 27.84 133.883 27.2C134.896 26.56 135.683 25.6667 136.243 24.52C136.803 23.3733 137.083 22.08 137.083 20.64C137.083 19.2 136.803 17.9067 136.243 16.76C135.683 15.6133 134.896 14.72 133.883 14.08C132.896 13.44 131.763 13.12 130.483 13.12C129.229 13.12 128.109 13.44 127.123 14.08C126.136 14.72 125.363 15.6133 124.803 16.76C124.243 17.88 123.963 19.16 123.963 20.6C123.963 22.0667 124.243 23.3733 124.803 24.52C125.363 25.6667 126.136 26.56 127.123 27.2C128.109 27.84 129.229 28.16 130.483 28.16ZM152.905 10.64C154.585 10.64 156.105 11.0533 157.465 11.88C158.825 12.7067 159.891 13.84 160.665 15.28C161.438 16.6933 161.825 18.28 161.825 20.04C161.825 20.5467 161.811 20.9333 161.785 21.2H146.385C146.491 23.12 147.118 24.76 148.265 26.12C149.411 27.48 150.971 28.16 152.945 28.16C154.545 28.16 155.865 27.8667 156.905 27.28C157.971 26.6667 158.825 25.8267 159.465 24.76L161.625 26.2C160.745 27.5867 159.585 28.68 158.145 29.48C156.705 30.2533 154.998 30.64 153.025 30.64C151.211 30.64 149.598 30.2133 148.185 29.36C146.771 28.5067 145.665 27.32 144.865 25.8C144.065 24.28 143.665 22.56 143.665 20.64C143.665 18.72 144.051 17 144.825 15.48C145.625 13.96 146.718 12.7733 148.105 11.92C149.518 11.0667 151.118 10.64 152.905 10.64ZM159.105 18.96C158.838 17.0133 158.185 15.56 157.145 14.6C156.105 13.6133 154.691 13.12 152.905 13.12C151.171 13.12 149.745 13.68 148.625 14.8C147.531 15.8933 146.838 17.28 146.545 18.96H159.105Z" fill="#1A1A1A"/>
</svg>
