<svg width="100" height="42" viewBox="0 0 100 42" fill="none" xmlns="http://www.w3.org/2000/svg">
<path d="M0.5 20C0.5 9.23045 9.23045 0.5 20 0.5H99.5V22C99.5 32.7696 90.7695 41.5 80 41.5H0.5V20Z" fill="white"/>
<path d="M19.52 30V13.2H21.488L32.6 27H31.568V13.2H33.968V30H32L20.888 16.2H21.92V30H19.52ZM41.1806 20.448H49.8206V22.488H41.1806V20.448ZM41.3966 27.912H51.1886V30H38.9966V13.2H50.8526V15.288H41.3966V27.912ZM58.7043 30L53.0883 13.2H55.5603L60.7203 28.704H59.4723L64.8243 13.2H67.0323L72.2643 28.704H71.0643L76.2963 13.2H78.5763L72.9603 30H70.4403L65.5443 15.624H66.1923L61.2723 30H58.7043Z" fill="#476B59"/>
<path d="M0.5 20C0.5 9.23045 9.23045 0.5 20 0.5H99.5V22C99.5 32.7696 90.7695 41.5 80 41.5H0.5V20Z" stroke="#476B59"/>
</svg>
